<?xml version="1.0" encoding="utf-8" standalone="no"?>
<!DOCTYPE svg PUBLIC "-//W3C//DTD SVG 1.1//EN"
  "http://www.w3.org/Graphics/SVG/1.1/DTD/svg11.dtd">
<!-- Created with matplotlib (http://matplotlib.org/) -->
<svg height="288pt" version="1.1" viewBox="0 0 576 288" width="576pt" xmlns="http://www.w3.org/2000/svg" xmlns:xlink="http://www.w3.org/1999/xlink">
 <defs>
  <style type="text/css">
*{stroke-linecap:butt;stroke-linejoin:round;}
  </style>
 </defs>
 <g id="figure_1">
  <g id="patch_1">
   <path d="M 0 288 
L 576 288 
L 576 0 
L 0 0 
z
" style="fill:#ffffff;"/>
  </g>
  <g id="axes_1">
   <g id="patch_2">
    <path d="M 152.516744 285.48 
L 423.483256 285.48 
L 423.483256 2.52 
L 152.516744 2.52 
z
" style="fill:#ffffff;"/>
   </g>
   <g id="matplotlib.axis_1"/>
   <g id="matplotlib.axis_2"/>
   <g id="line2d_1">
    <path clip-path="url(#paf63fc273f)" d="M 228.371413 80.544457 
L 286.718206 143.776285 
" style="fill:none;stroke:#87cefa;stroke-linecap:square;stroke-width:3;"/>
   </g>
   <g id="line2d_2">
    <path clip-path="url(#paf63fc273f)" d="M 411.97949 255.122578 
L 354.462306 208.523195 
" style="fill:none;stroke:#f0e68c;stroke-linecap:square;stroke-width:3;"/>
   </g>
   <g id="line2d_3">
    <path clip-path="url(#paf63fc273f)" d="M 418.272362 172.564332 
L 354.462306 208.523195 
" style="fill:none;stroke:#f0e68c;stroke-linecap:square;stroke-width:3;"/>
   </g>
   <g id="line2d_4">
    <path clip-path="url(#paf63fc273f)" d="M 354.462306 208.523195 
L 333.468766 280.038462 
" style="fill:none;stroke:#f0e68c;stroke-linecap:square;stroke-width:3;"/>
   </g>
   <g id="line2d_5">
    <path clip-path="url(#paf63fc273f)" d="M 354.462306 208.523195 
L 286.718206 143.776285 
" style="fill:none;stroke:#f0e68c;stroke-linecap:square;stroke-width:3;"/>
   </g>
   <g id="line2d_6">
    <path clip-path="url(#paf63fc273f)" d="M 157.727638 87.634603 
L 228.371413 80.544457 
" style="fill:none;stroke:#f0e68c;stroke-linecap:square;stroke-width:3;"/>
   </g>
   <g id="line2d_7">
    <path clip-path="url(#paf63fc273f)" d="M 228.371413 80.544457 
L 213.630958 7.961538 
" style="fill:none;stroke:#f0e68c;stroke-linecap:square;stroke-width:3;"/>
   </g>
   <g id="text_1">
    <g id="patch_3">
     <path d="M 250.36356 120.999434 
L 264.72606 120.999434 
L 264.72606 103.321309 
L 250.36356 103.321309 
z
" style="fill:#ffffff;stroke:#ffffff;stroke-linejoin:miter;"/>
    </g>
    <!-- 2 -->
    <defs>
     <path d="M 19.1875 8.296875 
L 53.609375 8.296875 
L 53.609375 0 
L 7.328125 0 
L 7.328125 8.296875 
Q 12.9375 14.109375 22.625 23.890625 
Q 32.328125 33.6875 34.8125 36.53125 
Q 39.546875 41.84375 41.421875 45.53125 
Q 43.3125 49.21875 43.3125 52.78125 
Q 43.3125 58.59375 39.234375 62.25 
Q 35.15625 65.921875 28.609375 65.921875 
Q 23.96875 65.921875 18.8125 64.3125 
Q 13.671875 62.703125 7.8125 59.421875 
L 7.8125 69.390625 
Q 13.765625 71.78125 18.9375 73 
Q 24.125 74.21875 28.421875 74.21875 
Q 39.75 74.21875 46.484375 68.546875 
Q 53.21875 62.890625 53.21875 53.421875 
Q 53.21875 48.921875 51.53125 44.890625 
Q 49.859375 40.875 45.40625 35.40625 
Q 44.1875 33.984375 37.640625 27.21875 
Q 31.109375 20.453125 19.1875 8.296875 
z
" id="DejaVuSans-32"/>
    </defs>
    <g style="fill:#0000ff;" transform="translate(254.36356 114.919746)scale(0.1 -0.1)">
     <use xlink:href="#DejaVuSans-32"/>
    </g>
   </g>
   <g id="text_2">
    <g id="patch_4">
     <path d="M 376.039648 240.661949 
L 390.402148 240.661949 
L 390.402148 222.983824 
L 376.039648 222.983824 
z
" style="fill:#ffffff;stroke:#ffffff;stroke-linejoin:miter;"/>
    </g>
    <!-- 2 -->
    <g style="fill:#0000ff;" transform="translate(380.039648 234.582261)scale(0.1 -0.1)">
     <use xlink:href="#DejaVuSans-32"/>
    </g>
   </g>
   <g id="text_3">
    <g id="patch_5">
     <path d="M 379.186084 199.382826 
L 393.548584 199.382826 
L 393.548584 181.704701 
L 379.186084 181.704701 
z
" style="fill:#ffffff;stroke:#ffffff;stroke-linejoin:miter;"/>
    </g>
    <!-- 4 -->
    <defs>
     <path d="M 37.796875 64.3125 
L 12.890625 25.390625 
L 37.796875 25.390625 
z
M 35.203125 72.90625 
L 47.609375 72.90625 
L 47.609375 25.390625 
L 58.015625 25.390625 
L 58.015625 17.1875 
L 47.609375 17.1875 
L 47.609375 0 
L 37.796875 0 
L 37.796875 17.1875 
L 4.890625 17.1875 
L 4.890625 26.703125 
z
" id="DejaVuSans-34"/>
    </defs>
    <g style="fill:#0000ff;" transform="translate(383.186084 193.303138)scale(0.1 -0.1)">
     <use xlink:href="#DejaVuSans-34"/>
    </g>
   </g>
   <g id="text_4">
    <g id="patch_6">
     <path d="M 336.784286 253.119891 
L 351.146786 253.119891 
L 351.146786 235.441766 
L 336.784286 235.441766 
z
" style="fill:#ffffff;stroke:#ffffff;stroke-linejoin:miter;"/>
    </g>
    <!-- 1 -->
    <defs>
     <path d="M 12.40625 8.296875 
L 28.515625 8.296875 
L 28.515625 63.921875 
L 10.984375 60.40625 
L 10.984375 69.390625 
L 28.421875 72.90625 
L 38.28125 72.90625 
L 38.28125 8.296875 
L 54.390625 8.296875 
L 54.390625 0 
L 12.40625 0 
z
" id="DejaVuSans-31"/>
    </defs>
    <g style="fill:#0000ff;" transform="translate(340.784286 247.040203)scale(0.1 -0.1)">
     <use xlink:href="#DejaVuSans-31"/>
    </g>
   </g>
   <g id="text_5">
    <g id="patch_7">
     <path d="M 313.409006 184.988802 
L 327.771506 184.988802 
L 327.771506 167.310677 
L 313.409006 167.310677 
z
" style="fill:#ffffff;stroke:#ffffff;stroke-linejoin:miter;"/>
    </g>
    <!-- 1 -->
    <g style="fill:#0000ff;" transform="translate(317.409006 178.909115)scale(0.1 -0.1)">
     <use xlink:href="#DejaVuSans-31"/>
    </g>
   </g>
   <g id="text_6">
    <g id="patch_8">
     <path d="M 185.868276 92.928593 
L 200.230776 92.928593 
L 200.230776 75.250468 
L 185.868276 75.250468 
z
" style="fill:#ffffff;stroke:#ffffff;stroke-linejoin:miter;"/>
    </g>
    <!-- 1 -->
    <g style="fill:#0000ff;" transform="translate(189.868276 86.848905)scale(0.1 -0.1)">
     <use xlink:href="#DejaVuSans-31"/>
    </g>
   </g>
   <g id="text_7">
    <g id="patch_9">
     <path d="M 213.819935 53.09206 
L 228.182435 53.09206 
L 228.182435 35.413935 
L 213.819935 35.413935 
z
" style="fill:#ffffff;stroke:#ffffff;stroke-linejoin:miter;"/>
    </g>
    <!-- 2 -->
    <g style="fill:#0000ff;" transform="translate(217.819935 47.012373)scale(0.1 -0.1)">
     <use xlink:href="#DejaVuSans-32"/>
    </g>
   </g>
   <g id="PathCollection_1">
    <defs>
     <path d="M 0 7.071068 
C 1.875269 7.071068 3.673985 6.326016 5 5 
C 6.326016 3.673985 7.071068 1.875269 7.071068 0 
C 7.071068 -1.875269 6.326016 -3.673985 5 -5 
C 3.673985 -6.326016 1.875269 -7.071068 0 -7.071068 
C -1.875269 -7.071068 -3.673985 -6.326016 -5 -5 
C -6.326016 -3.673985 -7.071068 -1.875269 -7.071068 0 
C -7.071068 1.875269 -6.326016 3.673985 -5 5 
C -3.673985 6.326016 -1.875269 7.071068 0 7.071068 
z
" id="C0_0_8cd5ca79fa"/>
    </defs>
    <use style="fill:#87cefa;stroke:#000000;" x="411.97949" xlink:href="#C0_0_8cd5ca79fa" y="255.122578"/>
    <use style="fill:#87cefa;stroke:#000000;" x="418.272362" xlink:href="#C0_0_8cd5ca79fa" y="172.564332"/>
    <use style="fill:#87cefa;stroke:#000000;" x="157.727638" xlink:href="#C0_0_8cd5ca79fa" y="87.634603"/>
    <use style="fill:#87cefa;stroke:#000000;" x="228.371413" xlink:href="#C0_0_8cd5ca79fa" y="80.544457"/>
    <use style="fill:#87cefa;stroke:#000000;" x="333.468766" xlink:href="#C0_0_8cd5ca79fa" y="280.038462"/>
    <use style="fill:#87cefa;stroke:#000000;" x="286.718206" xlink:href="#C0_0_8cd5ca79fa" y="143.776285"/>
    <use style="fill:#87cefa;stroke:#000000;" x="213.630958" xlink:href="#C0_0_8cd5ca79fa" y="7.961538"/>
    <use style="fill:#f0e68c;stroke:#000000;" x="354.462306" xlink:href="#C0_0_8cd5ca79fa" y="208.523195"/>
   </g>
  </g>
 </g>
 <defs>
  <clipPath id="paf63fc273f">
   <rect height="282.96" width="270.966512" x="152.516744" y="2.52"/>
  </clipPath>
 </defs>
</svg>
