<?xml version="1.0" encoding="utf-8" standalone="no"?>
<!DOCTYPE svg PUBLIC "-//W3C//DTD SVG 1.1//EN"
  "http://www.w3.org/Graphics/SVG/1.1/DTD/svg11.dtd">
<!-- Created with matplotlib (http://matplotlib.org/) -->
<svg height="288pt" version="1.1" viewBox="0 0 576 288" width="576pt" xmlns="http://www.w3.org/2000/svg" xmlns:xlink="http://www.w3.org/1999/xlink">
 <defs>
  <style type="text/css">
*{stroke-linecap:butt;stroke-linejoin:round;}
  </style>
 </defs>
 <g id="figure_1">
  <g id="patch_1">
   <path d="M 0 288 
L 576 288 
L 576 0 
L 0 0 
z
" style="fill:#ffffff;"/>
  </g>
  <g id="axes_1">
   <g id="patch_2">
    <path d="M 83.42072 285.48 
L 492.57928 285.48 
L 492.57928 2.52 
L 83.42072 2.52 
z
" style="fill:#ffffff;"/>
   </g>
   <g id="matplotlib.axis_1"/>
   <g id="matplotlib.axis_2"/>
   <g id="line2d_1">
    <path clip-path="url(#pb4f1cf9bcd)" d="M 391.105516 193.89243 
L 286.19488 150.079496 
" style="fill:none;stroke:#87cefa;stroke-linecap:square;stroke-width:3;"/>
   </g>
   <g id="line2d_2">
    <path clip-path="url(#pb4f1cf9bcd)" d="M 121.202822 173.011118 
L 176.748483 101.131121 
" style="fill:none;stroke:#f0e68c;stroke-linecap:square;stroke-width:3;"/>
   </g>
   <g id="line2d_3">
    <path clip-path="url(#pb4f1cf9bcd)" d="M 173.933749 7.961538 
L 176.748483 101.131121 
" style="fill:none;stroke:#f0e68c;stroke-linecap:square;stroke-width:3;"/>
   </g>
   <g id="line2d_4">
    <path clip-path="url(#pb4f1cf9bcd)" d="M 176.748483 101.131121 
L 91.289154 76.272997 
" style="fill:none;stroke:#f0e68c;stroke-linecap:square;stroke-width:3;"/>
   </g>
   <g id="line2d_5">
    <path clip-path="url(#pb4f1cf9bcd)" d="M 176.748483 101.131121 
L 286.19488 150.079496 
" style="fill:none;stroke:#f0e68c;stroke-linecap:square;stroke-width:3;"/>
   </g>
   <g id="line2d_6">
    <path clip-path="url(#pb4f1cf9bcd)" d="M 421.663918 280.038462 
L 391.105516 193.89243 
" style="fill:none;stroke:#f0e68c;stroke-linecap:square;stroke-width:3;"/>
   </g>
   <g id="line2d_7">
    <path clip-path="url(#pb4f1cf9bcd)" d="M 391.105516 193.89243 
L 484.710846 180.239801 
" style="fill:none;stroke:#f0e68c;stroke-linecap:square;stroke-width:3;"/>
   </g>
   <g id="text_1">
    <g id="patch_3">
     <path d="M 331.468948 180.825026 
L 345.831448 180.825026 
L 345.831448 163.146901 
L 331.468948 163.146901 
z
" style="fill:#ffffff;stroke:#ffffff;stroke-linejoin:miter;"/>
    </g>
    <!-- 2 -->
    <defs>
     <path d="M 19.1875 8.296875 
L 53.609375 8.296875 
L 53.609375 0 
L 7.328125 0 
L 7.328125 8.296875 
Q 12.9375 14.109375 22.625 23.890625 
Q 32.328125 33.6875 34.8125 36.53125 
Q 39.546875 41.84375 41.421875 45.53125 
Q 43.3125 49.21875 43.3125 52.78125 
Q 43.3125 58.59375 39.234375 62.25 
Q 35.15625 65.921875 28.609375 65.921875 
Q 23.96875 65.921875 18.8125 64.3125 
Q 13.671875 62.703125 7.8125 59.421875 
L 7.8125 69.390625 
Q 13.765625 71.78125 18.9375 73 
Q 24.125 74.21875 28.421875 74.21875 
Q 39.75 74.21875 46.484375 68.546875 
Q 53.21875 62.890625 53.21875 53.421875 
Q 53.21875 48.921875 51.53125 44.890625 
Q 49.859375 40.875 45.40625 35.40625 
Q 44.1875 33.984375 37.640625 27.21875 
Q 31.109375 20.453125 19.1875 8.296875 
z
" id="DejaVuSans-32"/>
    </defs>
    <g style="fill:#0000ff;" transform="translate(335.468948 174.745338)scale(0.1 -0.1)">
     <use xlink:href="#DejaVuSans-32"/>
    </g>
   </g>
   <g id="text_2">
    <g id="patch_4">
     <path d="M 141.794402 145.910182 
L 156.156902 145.910182 
L 156.156902 128.232057 
L 141.794402 128.232057 
z
" style="fill:#ffffff;stroke:#ffffff;stroke-linejoin:miter;"/>
    </g>
    <!-- 2 -->
    <g style="fill:#0000ff;" transform="translate(145.794402 139.830494)scale(0.1 -0.1)">
     <use xlink:href="#DejaVuSans-32"/>
    </g>
   </g>
   <g id="text_3">
    <g id="patch_5">
     <path d="M 168.159866 63.385392 
L 182.522366 63.385392 
L 182.522366 45.707267 
L 168.159866 45.707267 
z
" style="fill:#ffffff;stroke:#ffffff;stroke-linejoin:miter;"/>
    </g>
    <!-- 4 -->
    <defs>
     <path d="M 37.796875 64.3125 
L 12.890625 25.390625 
L 37.796875 25.390625 
z
M 35.203125 72.90625 
L 47.609375 72.90625 
L 47.609375 25.390625 
L 58.015625 25.390625 
L 58.015625 17.1875 
L 47.609375 17.1875 
L 47.609375 0 
L 37.796875 0 
L 37.796875 17.1875 
L 4.890625 17.1875 
L 4.890625 26.703125 
z
" id="DejaVuSans-34"/>
    </defs>
    <g style="fill:#0000ff;" transform="translate(172.159866 57.305705)scale(0.1 -0.1)">
     <use xlink:href="#DejaVuSans-34"/>
    </g>
   </g>
   <g id="text_4">
    <g id="patch_6">
     <path d="M 126.837569 97.541121 
L 141.200069 97.541121 
L 141.200069 79.862996 
L 126.837569 79.862996 
z
" style="fill:#ffffff;stroke:#ffffff;stroke-linejoin:miter;"/>
    </g>
    <!-- 1 -->
    <defs>
     <path d="M 12.40625 8.296875 
L 28.515625 8.296875 
L 28.515625 63.921875 
L 10.984375 60.40625 
L 10.984375 69.390625 
L 28.421875 72.90625 
L 38.28125 72.90625 
L 38.28125 8.296875 
L 54.390625 8.296875 
L 54.390625 0 
L 12.40625 0 
z
" id="DejaVuSans-31"/>
    </defs>
    <g style="fill:#0000ff;" transform="translate(130.837569 91.461434)scale(0.1 -0.1)">
     <use xlink:href="#DejaVuSans-31"/>
    </g>
   </g>
   <g id="text_5">
    <g id="patch_7">
     <path d="M 224.290431 134.444371 
L 238.652931 134.444371 
L 238.652931 116.766246 
L 224.290431 116.766246 
z
" style="fill:#ffffff;stroke:#ffffff;stroke-linejoin:miter;"/>
    </g>
    <!-- 1 -->
    <g style="fill:#0000ff;" transform="translate(228.290431 128.364683)scale(0.1 -0.1)">
     <use xlink:href="#DejaVuSans-31"/>
    </g>
   </g>
   <g id="text_6">
    <g id="patch_8">
     <path d="M 399.203467 245.804509 
L 413.565967 245.804509 
L 413.565967 228.126384 
L 399.203467 228.126384 
z
" style="fill:#ffffff;stroke:#ffffff;stroke-linejoin:miter;"/>
    </g>
    <!-- 1 -->
    <g style="fill:#0000ff;" transform="translate(403.203467 239.724821)scale(0.1 -0.1)">
     <use xlink:href="#DejaVuSans-31"/>
    </g>
   </g>
   <g id="text_7">
    <g id="patch_9">
     <path d="M 430.726931 195.905178 
L 445.089431 195.905178 
L 445.089431 178.227053 
L 430.726931 178.227053 
z
" style="fill:#ffffff;stroke:#ffffff;stroke-linejoin:miter;"/>
    </g>
    <!-- 2 -->
    <g style="fill:#0000ff;" transform="translate(434.726931 189.825491)scale(0.1 -0.1)">
     <use xlink:href="#DejaVuSans-32"/>
    </g>
   </g>
   <g id="PathCollection_1">
    <defs>
     <path d="M 0 7.071068 
C 1.875269 7.071068 3.673985 6.326016 5 5 
C 6.326016 3.673985 7.071068 1.875269 7.071068 0 
C 7.071068 -1.875269 6.326016 -3.673985 5 -5 
C 3.673985 -6.326016 1.875269 -7.071068 0 -7.071068 
C -1.875269 -7.071068 -3.673985 -6.326016 -5 -5 
C -6.326016 -3.673985 -7.071068 -1.875269 -7.071068 0 
C -7.071068 1.875269 -6.326016 3.673985 -5 5 
C -3.673985 6.326016 -1.875269 7.071068 0 7.071068 
z
" id="C0_0_5ae1dd7d0d"/>
    </defs>
    <use style="fill:#87cefa;stroke:#000000;" x="121.202822" xlink:href="#C0_0_5ae1dd7d0d" y="173.011118"/>
    <use style="fill:#87cefa;stroke:#000000;" x="173.933749" xlink:href="#C0_0_5ae1dd7d0d" y="7.961538"/>
    <use style="fill:#87cefa;stroke:#000000;" x="421.663918" xlink:href="#C0_0_5ae1dd7d0d" y="280.038462"/>
    <use style="fill:#87cefa;stroke:#000000;" x="391.105516" xlink:href="#C0_0_5ae1dd7d0d" y="193.89243"/>
    <use style="fill:#87cefa;stroke:#000000;" x="91.289154" xlink:href="#C0_0_5ae1dd7d0d" y="76.272997"/>
    <use style="fill:#87cefa;stroke:#000000;" x="286.19488" xlink:href="#C0_0_5ae1dd7d0d" y="150.079496"/>
    <use style="fill:#87cefa;stroke:#000000;" x="484.710846" xlink:href="#C0_0_5ae1dd7d0d" y="180.239801"/>
    <use style="fill:#f0e68c;stroke:#000000;" x="176.748483" xlink:href="#C0_0_5ae1dd7d0d" y="101.131121"/>
   </g>
  </g>
 </g>
 <defs>
  <clipPath id="pb4f1cf9bcd">
   <rect height="282.96" width="409.158559" x="83.42072" y="2.52"/>
  </clipPath>
 </defs>
</svg>
