<?xml version="1.0" encoding="utf-8" standalone="no"?>
<!DOCTYPE svg PUBLIC "-//W3C//DTD SVG 1.1//EN"
  "http://www.w3.org/Graphics/SVG/1.1/DTD/svg11.dtd">
<!-- Created with matplotlib (http://matplotlib.org/) -->
<svg height="288pt" version="1.1" viewBox="0 0 576 288" width="576pt" xmlns="http://www.w3.org/2000/svg" xmlns:xlink="http://www.w3.org/1999/xlink">
 <defs>
  <style type="text/css">
*{stroke-linecap:butt;stroke-linejoin:round;}
  </style>
 </defs>
 <g id="figure_1">
  <g id="patch_1">
   <path d="M 0 288 
L 576 288 
L 576 0 
L 0 0 
z
" style="fill:#ffffff;"/>
  </g>
  <g id="axes_1">
   <g id="patch_2">
    <path d="M 124.341801 285.48 
L 451.658199 285.48 
L 451.658199 2.52 
L 124.341801 2.52 
z
" style="fill:#ffffff;"/>
   </g>
   <g id="matplotlib.axis_1"/>
   <g id="matplotlib.axis_2"/>
   <g id="line2d_1">
    <path clip-path="url(#p8350c2e858)" d="M 365.234625 86.366619 
L 286.69921 145.895907 
" style="fill:none;stroke:#87cefa;stroke-linecap:square;stroke-width:3;"/>
   </g>
   <g id="line2d_2">
    <path clip-path="url(#p8350c2e858)" d="M 229.882396 280.038462 
L 201.547309 204.138877 
" style="fill:none;stroke:#f0e68c;stroke-linecap:square;stroke-width:3;"/>
   </g>
   <g id="line2d_3">
    <path clip-path="url(#p8350c2e858)" d="M 133.926603 254.853932 
L 201.547309 204.138877 
" style="fill:none;stroke:#f0e68c;stroke-linecap:square;stroke-width:3;"/>
   </g>
   <g id="line2d_4">
    <path clip-path="url(#p8350c2e858)" d="M 201.547309 204.138877 
L 130.636347 162.20234 
" style="fill:none;stroke:#f0e68c;stroke-linecap:square;stroke-width:3;"/>
   </g>
   <g id="line2d_5">
    <path clip-path="url(#p8350c2e858)" d="M 201.547309 204.138877 
L 286.69921 145.895907 
" style="fill:none;stroke:#f0e68c;stroke-linecap:square;stroke-width:3;"/>
   </g>
   <g id="line2d_6">
    <path clip-path="url(#p8350c2e858)" d="M 389.178511 7.961538 
L 365.234625 86.366619 
" style="fill:none;stroke:#f0e68c;stroke-linecap:square;stroke-width:3;"/>
   </g>
   <g id="line2d_7">
    <path clip-path="url(#p8350c2e858)" d="M 365.234625 86.366619 
L 445.363653 89.879857 
" style="fill:none;stroke:#f0e68c;stroke-linecap:square;stroke-width:3;"/>
   </g>
   <g id="text_1">
    <g id="patch_3">
     <path d="M 318.785667 124.970325 
L 333.148167 124.970325 
L 333.148167 107.2922 
L 318.785667 107.2922 
z
" style="fill:#ffffff;stroke:#ffffff;stroke-linejoin:miter;"/>
    </g>
    <!-- 2 -->
    <defs>
     <path d="M 19.1875 8.296875 
L 53.609375 8.296875 
L 53.609375 0 
L 7.328125 0 
L 7.328125 8.296875 
Q 12.9375 14.109375 22.625 23.890625 
Q 32.328125 33.6875 34.8125 36.53125 
Q 39.546875 41.84375 41.421875 45.53125 
Q 43.3125 49.21875 43.3125 52.78125 
Q 43.3125 58.59375 39.234375 62.25 
Q 35.15625 65.921875 28.609375 65.921875 
Q 23.96875 65.921875 18.8125 64.3125 
Q 13.671875 62.703125 7.8125 59.421875 
L 7.8125 69.390625 
Q 13.765625 71.78125 18.9375 73 
Q 24.125 74.21875 28.421875 74.21875 
Q 39.75 74.21875 46.484375 68.546875 
Q 53.21875 62.890625 53.21875 53.421875 
Q 53.21875 48.921875 51.53125 44.890625 
Q 49.859375 40.875 45.40625 35.40625 
Q 44.1875 33.984375 37.640625 27.21875 
Q 31.109375 20.453125 19.1875 8.296875 
z
" id="DejaVuSans-32"/>
    </defs>
    <g style="fill:#0000ff;" transform="translate(322.785667 118.890638)scale(0.1 -0.1)">
     <use xlink:href="#DejaVuSans-32"/>
    </g>
   </g>
   <g id="text_2">
    <g id="patch_4">
     <path d="M 208.533603 250.927732 
L 222.896103 250.927732 
L 222.896103 233.249607 
L 208.533603 233.249607 
z
" style="fill:#ffffff;stroke:#ffffff;stroke-linejoin:miter;"/>
    </g>
    <!-- 2 -->
    <g style="fill:#0000ff;" transform="translate(212.533603 244.848044)scale(0.1 -0.1)">
     <use xlink:href="#DejaVuSans-32"/>
    </g>
   </g>
   <g id="text_3">
    <g id="patch_5">
     <path d="M 160.555706 238.335467 
L 174.918206 238.335467 
L 174.918206 220.657342 
L 160.555706 220.657342 
z
" style="fill:#ffffff;stroke:#ffffff;stroke-linejoin:miter;"/>
    </g>
    <!-- 4 -->
    <defs>
     <path d="M 37.796875 64.3125 
L 12.890625 25.390625 
L 37.796875 25.390625 
z
M 35.203125 72.90625 
L 47.609375 72.90625 
L 47.609375 25.390625 
L 58.015625 25.390625 
L 58.015625 17.1875 
L 47.609375 17.1875 
L 47.609375 0 
L 37.796875 0 
L 37.796875 17.1875 
L 4.890625 17.1875 
L 4.890625 26.703125 
z
" id="DejaVuSans-34"/>
    </defs>
    <g style="fill:#0000ff;" transform="translate(164.555706 232.25578)scale(0.1 -0.1)">
     <use xlink:href="#DejaVuSans-34"/>
    </g>
   </g>
   <g id="text_4">
    <g id="patch_6">
     <path d="M 158.910578 192.009671 
L 173.273078 192.009671 
L 173.273078 174.331546 
L 158.910578 174.331546 
z
" style="fill:#ffffff;stroke:#ffffff;stroke-linejoin:miter;"/>
    </g>
    <!-- 1 -->
    <defs>
     <path d="M 12.40625 8.296875 
L 28.515625 8.296875 
L 28.515625 63.921875 
L 10.984375 60.40625 
L 10.984375 69.390625 
L 28.421875 72.90625 
L 38.28125 72.90625 
L 38.28125 8.296875 
L 54.390625 8.296875 
L 54.390625 0 
L 12.40625 0 
z
" id="DejaVuSans-31"/>
    </defs>
    <g style="fill:#0000ff;" transform="translate(162.910578 185.929984)scale(0.1 -0.1)">
     <use xlink:href="#DejaVuSans-31"/>
    </g>
   </g>
   <g id="text_5">
    <g id="patch_7">
     <path d="M 236.94201 183.856455 
L 251.30451 183.856455 
L 251.30451 166.17833 
L 236.94201 166.17833 
z
" style="fill:#ffffff;stroke:#ffffff;stroke-linejoin:miter;"/>
    </g>
    <!-- 1 -->
    <g style="fill:#0000ff;" transform="translate(240.94201 177.776767)scale(0.1 -0.1)">
     <use xlink:href="#DejaVuSans-31"/>
    </g>
   </g>
   <g id="text_6">
    <g id="patch_8">
     <path d="M 370.025318 56.003141 
L 384.387818 56.003141 
L 384.387818 38.325016 
L 370.025318 38.325016 
z
" style="fill:#ffffff;stroke:#ffffff;stroke-linejoin:miter;"/>
    </g>
    <!-- 1 -->
    <g style="fill:#0000ff;" transform="translate(374.025318 49.923454)scale(0.1 -0.1)">
     <use xlink:href="#DejaVuSans-31"/>
    </g>
   </g>
   <g id="text_7">
    <g id="patch_9">
     <path d="M 398.117889 96.9623 
L 412.480389 96.9623 
L 412.480389 79.284175 
L 398.117889 79.284175 
z
" style="fill:#ffffff;stroke:#ffffff;stroke-linejoin:miter;"/>
    </g>
    <!-- 2 -->
    <g style="fill:#0000ff;" transform="translate(402.117889 90.882613)scale(0.1 -0.1)">
     <use xlink:href="#DejaVuSans-32"/>
    </g>
   </g>
   <g id="PathCollection_1">
    <defs>
     <path d="M 0 7.071068 
C 1.875269 7.071068 3.673985 6.326016 5 5 
C 6.326016 3.673985 7.071068 1.875269 7.071068 0 
C 7.071068 -1.875269 6.326016 -3.673985 5 -5 
C 3.673985 -6.326016 1.875269 -7.071068 0 -7.071068 
C -1.875269 -7.071068 -3.673985 -6.326016 -5 -5 
C -6.326016 -3.673985 -7.071068 -1.875269 -7.071068 0 
C -7.071068 1.875269 -6.326016 3.673985 -5 5 
C -3.673985 6.326016 -1.875269 7.071068 0 7.071068 
z
" id="C0_0_6dc31c0168"/>
    </defs>
    <use style="fill:#87cefa;stroke:#000000;" x="229.882396" xlink:href="#C0_0_6dc31c0168" y="280.038462"/>
    <use style="fill:#87cefa;stroke:#000000;" x="133.926603" xlink:href="#C0_0_6dc31c0168" y="254.853932"/>
    <use style="fill:#87cefa;stroke:#000000;" x="389.178511" xlink:href="#C0_0_6dc31c0168" y="7.961538"/>
    <use style="fill:#87cefa;stroke:#000000;" x="365.234625" xlink:href="#C0_0_6dc31c0168" y="86.366619"/>
    <use style="fill:#87cefa;stroke:#000000;" x="130.636347" xlink:href="#C0_0_6dc31c0168" y="162.20234"/>
    <use style="fill:#87cefa;stroke:#000000;" x="286.69921" xlink:href="#C0_0_6dc31c0168" y="145.895907"/>
    <use style="fill:#87cefa;stroke:#000000;" x="445.363653" xlink:href="#C0_0_6dc31c0168" y="89.879857"/>
    <use style="fill:#f0e68c;stroke:#000000;" x="201.547309" xlink:href="#C0_0_6dc31c0168" y="204.138877"/>
   </g>
  </g>
 </g>
 <defs>
  <clipPath id="p8350c2e858">
   <rect height="282.96" width="327.316398" x="124.341801" y="2.52"/>
  </clipPath>
 </defs>
</svg>
