<?xml version="1.0" encoding="utf-8" standalone="no"?>
<!DOCTYPE svg PUBLIC "-//W3C//DTD SVG 1.1//EN"
  "http://www.w3.org/Graphics/SVG/1.1/DTD/svg11.dtd">
<svg xmlns:xlink="http://www.w3.org/1999/xlink" width="576pt" height="288pt" viewBox="0 0 576 288" xmlns="http://www.w3.org/2000/svg" version="1.1">
 <metadata>
  <rdf:RDF xmlns:dc="http://purl.org/dc/elements/1.1/" xmlns:cc="http://creativecommons.org/ns#" xmlns:rdf="http://www.w3.org/1999/02/22-rdf-syntax-ns#">
   <cc:Work>
    <dc:type rdf:resource="http://purl.org/dc/dcmitype/StillImage"/>
    <dc:date>2024-01-30T15:03:43.590784</dc:date>
    <dc:format>image/svg+xml</dc:format>
    <dc:creator>
     <cc:Agent>
      <dc:title>Matplotlib v3.8.2, https://matplotlib.org/</dc:title>
     </cc:Agent>
    </dc:creator>
   </cc:Work>
  </rdf:RDF>
 </metadata>
 <defs>
  <style type="text/css">*{stroke-linejoin: round; stroke-linecap: butt}</style>
 </defs>
 <g id="figure_1">
  <g id="patch_1">
   <path d="M 0 288 
L 576 288 
L 576 0 
L 0 0 
z
" style="fill: #ffffff"/>
  </g>
  <g id="axes_1">
   <g id="patch_2">
    <path d="M 0 265.836352 
L 576 265.836352 
L 576 22.163648 
L 0 22.163648 
z
" style="fill: #ffffff"/>
   </g>
   <g id="matplotlib.axis_1"/>
   <g id="matplotlib.axis_2"/>
   <g id="line2d_1">
    <path d="M 451.80058 116.470895 
L 297.358609 138.023775 
" clip-path="url(#pc04c60fcf4)" style="fill: none; stroke: #87cefa; stroke-width: 3; stroke-linecap: square"/>
   </g>
   <g id="line2d_2">
    <path d="M 69.225055 55.530272 
L 136.721564 152.312698 
" clip-path="url(#pc04c60fcf4)" style="fill: none; stroke: #f0e68c; stroke-width: 3; stroke-linecap: square"/>
   </g>
   <g id="line2d_3">
    <path d="M 11.076923 177.338113 
L 136.721564 152.312698 
" clip-path="url(#pc04c60fcf4)" style="fill: none; stroke: #f0e68c; stroke-width: 3; stroke-linecap: square"/>
   </g>
   <g id="line2d_4">
    <path d="M 136.721564 152.312698 
L 111.354852 261.150339 
" clip-path="url(#pc04c60fcf4)" style="fill: none; stroke: #f0e68c; stroke-width: 3; stroke-linecap: square"/>
   </g>
   <g id="line2d_5">
    <path d="M 136.721564 152.312698 
L 297.358609 138.023775 
" clip-path="url(#pc04c60fcf4)" style="fill: none; stroke: #f0e68c; stroke-width: 3; stroke-linecap: square"/>
   </g>
   <g id="line2d_6">
    <path d="M 564.923077 162.636777 
L 451.80058 116.470895 
" clip-path="url(#pc04c60fcf4)" style="fill: none; stroke: #f0e68c; stroke-width: 3; stroke-linecap: square"/>
   </g>
   <g id="line2d_7">
    <path d="M 451.80058 116.470895 
L 517.020582 26.849661 
" clip-path="url(#pc04c60fcf4)" style="fill: none; stroke: #f0e68c; stroke-width: 3; stroke-linecap: square"/>
   </g>
   <g id="text_1">
    <g id="patch_3">
     <path d="M 367.398345 136.086397 
L 381.760845 136.086397 
L 381.760845 118.408272 
L 367.398345 118.408272 
z
" style="fill: #ffffff; stroke: #ffffff; stroke-linejoin: miter"/>
    </g>
    <!-- 2 -->
    <g style="fill: #0000ff" transform="translate(371.398345 130.00671) scale(0.1 -0.1)">
     <defs>
      <path id="DejaVuSans-32" d="M 1228 531 
L 3431 531 
L 3431 0 
L 469 0 
L 469 531 
Q 828 903 1448 1529 
Q 2069 2156 2228 2338 
Q 2531 2678 2651 2914 
Q 2772 3150 2772 3378 
Q 2772 3750 2511 3984 
Q 2250 4219 1831 4219 
Q 1534 4219 1204 4116 
Q 875 4013 500 3803 
L 500 4441 
Q 881 4594 1212 4672 
Q 1544 4750 1819 4750 
Q 2544 4750 2975 4387 
Q 3406 4025 3406 3419 
Q 3406 3131 3298 2873 
Q 3191 2616 2906 2266 
Q 2828 2175 2409 1742 
Q 1991 1309 1228 531 
z
" transform="scale(0.015625)"/>
     </defs>
     <use xlink:href="#DejaVuSans-32"/>
    </g>
   </g>
   <g id="text_2">
    <g id="patch_4">
     <path d="M 95.79206 112.760548 
L 110.15456 112.760548 
L 110.15456 95.082423 
L 95.79206 95.082423 
z
" style="fill: #ffffff; stroke: #ffffff; stroke-linejoin: miter"/>
    </g>
    <!-- 2 -->
    <g style="fill: #0000ff" transform="translate(99.79206 106.68086) scale(0.1 -0.1)">
     <use xlink:href="#DejaVuSans-32"/>
    </g>
   </g>
   <g id="text_3">
    <g id="patch_5">
     <path d="M 66.717994 173.664468 
L 81.080494 173.664468 
L 81.080494 155.986343 
L 66.717994 155.986343 
z
" style="fill: #ffffff; stroke: #ffffff; stroke-linejoin: miter"/>
    </g>
    <!-- 4 -->
    <g style="fill: #0000ff" transform="translate(70.717994 167.58478) scale(0.1 -0.1)">
     <defs>
      <path id="DejaVuSans-34" d="M 2419 4116 
L 825 1625 
L 2419 1625 
L 2419 4116 
z
M 2253 4666 
L 3047 4666 
L 3047 1625 
L 3713 1625 
L 3713 1100 
L 3047 1100 
L 3047 0 
L 2419 0 
L 2419 1100 
L 313 1100 
L 313 1709 
L 2253 4666 
z
" transform="scale(0.015625)"/>
     </defs>
     <use xlink:href="#DejaVuSans-34"/>
    </g>
   </g>
   <g id="text_4">
    <g id="patch_6">
     <path d="M 116.856958 215.570581 
L 131.219458 215.570581 
L 131.219458 197.892456 
L 116.856958 197.892456 
z
" style="fill: #ffffff; stroke: #ffffff; stroke-linejoin: miter"/>
    </g>
    <!-- 1 -->
    <g style="fill: #0000ff" transform="translate(120.856958 209.490894) scale(0.1 -0.1)">
     <defs>
      <path id="DejaVuSans-31" d="M 794 531 
L 1825 531 
L 1825 4091 
L 703 3866 
L 703 4441 
L 1819 4666 
L 2450 4666 
L 2450 531 
L 3481 531 
L 3481 0 
L 794 0 
L 794 531 
z
" transform="scale(0.015625)"/>
     </defs>
     <use xlink:href="#DejaVuSans-31"/>
    </g>
   </g>
   <g id="text_5">
    <g id="patch_7">
     <path d="M 209.858837 154.007299 
L 224.221337 154.007299 
L 224.221337 136.329174 
L 209.858837 136.329174 
z
" style="fill: #ffffff; stroke: #ffffff; stroke-linejoin: miter"/>
    </g>
    <!-- 1 -->
    <g style="fill: #0000ff" transform="translate(213.858837 147.927611) scale(0.1 -0.1)">
     <use xlink:href="#DejaVuSans-31"/>
    </g>
   </g>
   <g id="text_6">
    <g id="patch_8">
     <path d="M 501.180579 148.392898 
L 515.543079 148.392898 
L 515.543079 130.714773 
L 501.180579 130.714773 
z
" style="fill: #ffffff; stroke: #ffffff; stroke-linejoin: miter"/>
    </g>
    <!-- 1 -->
    <g style="fill: #0000ff" transform="translate(505.180579 142.313211) scale(0.1 -0.1)">
     <use xlink:href="#DejaVuSans-31"/>
    </g>
   </g>
   <g id="text_7">
    <g id="patch_9">
     <path d="M 477.229331 80.499341 
L 491.591831 80.499341 
L 491.591831 62.821216 
L 477.229331 62.821216 
z
" style="fill: #ffffff; stroke: #ffffff; stroke-linejoin: miter"/>
    </g>
    <!-- 2 -->
    <g style="fill: #0000ff" transform="translate(481.229331 74.419653) scale(0.1 -0.1)">
     <use xlink:href="#DejaVuSans-32"/>
    </g>
   </g>
   <g id="PathCollection_1">
    <defs>
     <path id="C0_0_5519243707" d="M 0 7.071068 
C 1.875269 7.071068 3.673985 6.326016 5 5 
C 6.326016 3.673985 7.071068 1.875269 7.071068 -0 
C 7.071068 -1.875269 6.326016 -3.673985 5 -5 
C 3.673985 -6.326016 1.875269 -7.071068 0 -7.071068 
C -1.875269 -7.071068 -3.673985 -6.326016 -5 -5 
C -6.326016 -3.673985 -7.071068 -1.875269 -7.071068 0 
C -7.071068 1.875269 -6.326016 3.673985 -5 5 
C -3.673985 6.326016 -1.875269 7.071068 0 7.071068 
z
"/>
    </defs>
    <use xlink:href="#C0_0_5519243707" x="69.225055" y="55.530272" style="fill: #87cefa; stroke: #000000"/>
    <use xlink:href="#C0_0_5519243707" x="11.076923" y="177.338113" style="fill: #87cefa; stroke: #000000"/>
    <use xlink:href="#C0_0_5519243707" x="564.923077" y="162.636777" style="fill: #87cefa; stroke: #000000"/>
    <use xlink:href="#C0_0_5519243707" x="451.80058" y="116.470895" style="fill: #87cefa; stroke: #000000"/>
    <use xlink:href="#C0_0_5519243707" x="111.354852" y="261.150339" style="fill: #87cefa; stroke: #000000"/>
    <use xlink:href="#C0_0_5519243707" x="297.358609" y="138.023775" style="fill: #87cefa; stroke: #000000"/>
    <use xlink:href="#C0_0_5519243707" x="517.020582" y="26.849661" style="fill: #87cefa; stroke: #000000"/>
    <use xlink:href="#C0_0_5519243707" x="136.721564" y="152.312698" style="fill: #f0e68c; stroke: #000000"/>
   </g>
  </g>
 </g>
 <defs>
  <clipPath id="pc04c60fcf4">
   <rect x="0" y="22.163648" width="576" height="243.672705"/>
  </clipPath>
 </defs>
</svg>
