<?xml version="1.0" encoding="utf-8" standalone="no"?>
<!DOCTYPE svg PUBLIC "-//W3C//DTD SVG 1.1//EN"
  "http://www.w3.org/Graphics/SVG/1.1/DTD/svg11.dtd">
<svg xmlns:xlink="http://www.w3.org/1999/xlink" width="576pt" height="288pt" viewBox="0 0 576 288" xmlns="http://www.w3.org/2000/svg" version="1.1">
 <metadata>
  <rdf:RDF xmlns:dc="http://purl.org/dc/elements/1.1/" xmlns:cc="http://creativecommons.org/ns#" xmlns:rdf="http://www.w3.org/1999/02/22-rdf-syntax-ns#">
   <cc:Work>
    <dc:type rdf:resource="http://purl.org/dc/dcmitype/StillImage"/>
    <dc:date>2022-10-31T14:01:18.357402</dc:date>
    <dc:format>image/svg+xml</dc:format>
    <dc:creator>
     <cc:Agent>
      <dc:title>Matplotlib v3.6.1, https://matplotlib.org/</dc:title>
     </cc:Agent>
    </dc:creator>
   </cc:Work>
  </rdf:RDF>
 </metadata>
 <defs>
  <style type="text/css">*{stroke-linejoin: round; stroke-linecap: butt}</style>
 </defs>
 <g id="figure_1">
  <g id="patch_1">
   <path d="M 0 288 
L 576 288 
L 576 0 
L 0 0 
z
" style="fill: #ffffff"/>
  </g>
  <g id="axes_1">
   <g id="patch_2">
    <path d="M 213.610298 288 
L 362.389702 288 
L 362.389702 0 
L 213.610298 0 
z
" style="fill: #ffffff"/>
   </g>
   <g id="matplotlib.axis_1"/>
   <g id="matplotlib.axis_2"/>
   <g id="line2d_1">
    <path d="M 311.733632 222.300198 
L 293.154874 143.478643 
" clip-path="url(#p223cb4ca68)" style="fill: none; stroke: #87cefa; stroke-width: 3; stroke-linecap: square"/>
   </g>
   <g id="line2d_2">
    <path d="M 318.969141 28.935242 
L 273.873401 64.45182 
" clip-path="url(#p223cb4ca68)" style="fill: none; stroke: #f0e68c; stroke-width: 3; stroke-linecap: square"/>
   </g>
   <g id="line2d_3">
    <path d="M 216.47144 54.565609 
L 273.873401 64.45182 
" clip-path="url(#p223cb4ca68)" style="fill: none; stroke: #f0e68c; stroke-width: 3; stroke-linecap: square"/>
   </g>
   <g id="line2d_4">
    <path d="M 273.873401 64.45182 
L 258.922025 5.538462 
" clip-path="url(#p223cb4ca68)" style="fill: none; stroke: #f0e68c; stroke-width: 3; stroke-linecap: square"/>
   </g>
   <g id="line2d_5">
    <path d="M 273.873401 64.45182 
L 293.154874 143.478643 
" clip-path="url(#p223cb4ca68)" style="fill: none; stroke: #f0e68c; stroke-width: 3; stroke-linecap: square"/>
   </g>
   <g id="line2d_6">
    <path d="M 293.562579 282.461538 
L 311.733632 222.300198 
" clip-path="url(#p223cb4ca68)" style="fill: none; stroke: #f0e68c; stroke-width: 3; stroke-linecap: square"/>
   </g>
   <g id="line2d_7">
    <path d="M 311.733632 222.300198 
L 359.52856 254.629547 
" clip-path="url(#p223cb4ca68)" style="fill: none; stroke: #f0e68c; stroke-width: 3; stroke-linecap: square"/>
   </g>
   <g id="text_1">
    <g id="patch_3">
     <path d="M 295.263003 191.728483 
L 309.625503 191.728483 
L 309.625503 174.050358 
L 295.263003 174.050358 
z
" style="fill: #ffffff; stroke: #ffffff; stroke-linejoin: miter"/>
    </g>
    <!-- 2 -->
    <g style="fill: #0000ff" transform="translate(299.263003 185.648795) scale(0.1 -0.1)">
     <defs>
      <path id="DejaVuSans-32" d="M 1228 531 
L 3431 531 
L 3431 0 
L 469 0 
L 469 531 
Q 828 903 1448 1529 
Q 2069 2156 2228 2338 
Q 2531 2678 2651 2914 
Q 2772 3150 2772 3378 
Q 2772 3750 2511 3984 
Q 2250 4219 1831 4219 
Q 1534 4219 1204 4116 
Q 875 4013 500 3803 
L 500 4441 
Q 881 4594 1212 4672 
Q 1544 4750 1819 4750 
Q 2544 4750 2975 4387 
Q 3406 4025 3406 3419 
Q 3406 3131 3298 2873 
Q 3191 2616 2906 2266 
Q 2828 2175 2409 1742 
Q 1991 1309 1228 531 
z
" transform="scale(0.015625)"/>
     </defs>
     <use xlink:href="#DejaVuSans-32"/>
    </g>
   </g>
   <g id="text_2">
    <g id="patch_4">
     <path d="M 289.240021 55.532593 
L 303.602521 55.532593 
L 303.602521 37.854468 
L 289.240021 37.854468 
z
" style="fill: #ffffff; stroke: #ffffff; stroke-linejoin: miter"/>
    </g>
    <!-- 2 -->
    <g style="fill: #0000ff" transform="translate(293.240021 49.452906) scale(0.1 -0.1)">
     <use xlink:href="#DejaVuSans-32"/>
    </g>
   </g>
   <g id="text_3">
    <g id="patch_5">
     <path d="M 237.99117 68.347777 
L 252.35367 68.347777 
L 252.35367 50.669652 
L 237.99117 50.669652 
z
" style="fill: #ffffff; stroke: #ffffff; stroke-linejoin: miter"/>
    </g>
    <!-- 4 -->
    <g style="fill: #0000ff" transform="translate(241.99117 62.268089) scale(0.1 -0.1)">
     <defs>
      <path id="DejaVuSans-34" d="M 2419 4116 
L 825 1625 
L 2419 1625 
L 2419 4116 
z
M 2253 4666 
L 3047 4666 
L 3047 1625 
L 3713 1625 
L 3713 1100 
L 3047 1100 
L 3047 0 
L 2419 0 
L 2419 1100 
L 313 1100 
L 313 1709 
L 2253 4666 
z
" transform="scale(0.015625)"/>
     </defs>
     <use xlink:href="#DejaVuSans-34"/>
    </g>
   </g>
   <g id="text_4">
    <g id="patch_6">
     <path d="M 259.216463 43.834203 
L 273.578963 43.834203 
L 273.578963 26.156078 
L 259.216463 26.156078 
z
" style="fill: #ffffff; stroke: #ffffff; stroke-linejoin: miter"/>
    </g>
    <!-- 1 -->
    <g style="fill: #0000ff" transform="translate(263.216463 37.754516) scale(0.1 -0.1)">
     <defs>
      <path id="DejaVuSans-31" d="M 794 531 
L 1825 531 
L 1825 4091 
L 703 3866 
L 703 4441 
L 1819 4666 
L 2450 4666 
L 2450 531 
L 3481 531 
L 3481 0 
L 794 0 
L 794 531 
z
" transform="scale(0.015625)"/>
     </defs>
     <use xlink:href="#DejaVuSans-31"/>
    </g>
   </g>
   <g id="text_5">
    <g id="patch_7">
     <path d="M 276.332887 112.804294 
L 290.695387 112.804294 
L 290.695387 95.126169 
L 276.332887 95.126169 
z
" style="fill: #ffffff; stroke: #ffffff; stroke-linejoin: miter"/>
    </g>
    <!-- 1 -->
    <g style="fill: #0000ff" transform="translate(280.332887 106.724606) scale(0.1 -0.1)">
     <use xlink:href="#DejaVuSans-31"/>
    </g>
   </g>
   <g id="text_6">
    <g id="patch_8">
     <path d="M 295.466856 261.219931 
L 309.829356 261.219931 
L 309.829356 243.541806 
L 295.466856 243.541806 
z
" style="fill: #ffffff; stroke: #ffffff; stroke-linejoin: miter"/>
    </g>
    <!-- 1 -->
    <g style="fill: #0000ff" transform="translate(299.466856 255.140243) scale(0.1 -0.1)">
     <use xlink:href="#DejaVuSans-31"/>
    </g>
   </g>
   <g id="text_7">
    <g id="patch_9">
     <path d="M 328.449846 247.303935 
L 342.812346 247.303935 
L 342.812346 229.62581 
L 328.449846 229.62581 
z
" style="fill: #ffffff; stroke: #ffffff; stroke-linejoin: miter"/>
    </g>
    <!-- 2 -->
    <g style="fill: #0000ff" transform="translate(332.449846 241.224248) scale(0.1 -0.1)">
     <use xlink:href="#DejaVuSans-32"/>
    </g>
   </g>
   <g id="PathCollection_1">
    <defs>
     <path id="C0_0_f66a29db9c" d="M 0 7.071068 
C 1.875269 7.071068 3.673985 6.326016 5 5 
C 6.326016 3.673985 7.071068 1.875269 7.071068 -0 
C 7.071068 -1.875269 6.326016 -3.673985 5 -5 
C 3.673985 -6.326016 1.875269 -7.071068 0 -7.071068 
C -1.875269 -7.071068 -3.673985 -6.326016 -5 -5 
C -6.326016 -3.673985 -7.071068 -1.875269 -7.071068 0 
C -7.071068 1.875269 -6.326016 3.673985 -5 5 
C -3.673985 6.326016 -1.875269 7.071068 0 7.071068 
z
"/>
    </defs>
    <use xlink:href="#C0_0_f66a29db9c" x="318.969141" y="28.935242" style="fill: #87cefa; stroke: #000000"/>
    <use xlink:href="#C0_0_f66a29db9c" x="216.47144" y="54.565609" style="fill: #87cefa; stroke: #000000"/>
    <use xlink:href="#C0_0_f66a29db9c" x="293.562579" y="282.461538" style="fill: #87cefa; stroke: #000000"/>
    <use xlink:href="#C0_0_f66a29db9c" x="311.733632" y="222.300198" style="fill: #87cefa; stroke: #000000"/>
    <use xlink:href="#C0_0_f66a29db9c" x="258.922025" y="5.538462" style="fill: #87cefa; stroke: #000000"/>
    <use xlink:href="#C0_0_f66a29db9c" x="293.154874" y="143.478643" style="fill: #87cefa; stroke: #000000"/>
    <use xlink:href="#C0_0_f66a29db9c" x="359.52856" y="254.629547" style="fill: #87cefa; stroke: #000000"/>
    <use xlink:href="#C0_0_f66a29db9c" x="273.873401" y="64.45182" style="fill: #f0e68c; stroke: #000000"/>
   </g>
  </g>
 </g>
 <defs>
  <clipPath id="p223cb4ca68">
   <rect x="213.610298" y="0" width="148.779404" height="288"/>
  </clipPath>
 </defs>
</svg>
