<?xml version="1.0" encoding="utf-8" standalone="no"?>
<!DOCTYPE svg PUBLIC "-//W3C//DTD SVG 1.1//EN"
  "http://www.w3.org/Graphics/SVG/1.1/DTD/svg11.dtd">
<svg height="288pt" version="1.1" viewBox="0 0 576 288" width="576pt" xmlns="http://www.w3.org/2000/svg" xmlns:xlink="http://www.w3.org/1999/xlink">
 <metadata>
  <rdf:RDF xmlns:cc="http://creativecommons.org/ns#" xmlns:dc="http://purl.org/dc/elements/1.1/" xmlns:rdf="http://www.w3.org/1999/02/22-rdf-syntax-ns#">
   <cc:Work>
    <dc:type rdf:resource="http://purl.org/dc/dcmitype/StillImage"/>
    <dc:date>2021-08-16T13:51:14.190278</dc:date>
    <dc:format>image/svg+xml</dc:format>
    <dc:creator>
     <cc:Agent>
      <dc:title>Matplotlib v3.4.3, https://matplotlib.org/</dc:title>
     </cc:Agent>
    </dc:creator>
   </cc:Work>
  </rdf:RDF>
 </metadata>
 <defs>
  <style type="text/css">*{stroke-linecap:butt;stroke-linejoin:round;}</style>
 </defs>
 <g id="figure_1">
  <g id="patch_1">
   <path d="M 0 288 
L 576 288 
L 576 0 
L 0 0 
z
" style="fill:#ffffff;"/>
  </g>
  <g id="axes_1">
   <g id="patch_2">
    <path d="M 155.048995 288 
L 420.951005 288 
L 420.951005 0 
L 155.048995 0 
z
" style="fill:#ffffff;"/>
   </g>
   <g id="matplotlib.axis_1"/>
   <g id="matplotlib.axis_2"/>
   <g id="line2d_1">
    <path clip-path="url(#p2acb33f6f0)" d="M 346.138521 216.271643 
L 291.818928 141.601869 
" style="fill:none;stroke:#87cefa;stroke-linecap:square;stroke-width:3;"/>
   </g>
   <g id="line2d_2">
    <path clip-path="url(#p2acb33f6f0)" d="M 283.344423 6.913903 
L 236.839193 65.83922 
" style="fill:none;stroke:#f0e68c;stroke-linecap:square;stroke-width:3;"/>
   </g>
   <g id="line2d_3">
    <path clip-path="url(#p2acb33f6f0)" d="M 160.162495 76.517908 
L 236.839193 65.83922 
" style="fill:none;stroke:#f0e68c;stroke-linecap:square;stroke-width:3;"/>
   </g>
   <g id="line2d_4">
    <path clip-path="url(#p2acb33f6f0)" d="M 236.839193 65.83922 
L 204.329533 5.538462 
" style="fill:none;stroke:#f0e68c;stroke-linecap:square;stroke-width:3;"/>
   </g>
   <g id="line2d_5">
    <path clip-path="url(#p2acb33f6f0)" d="M 236.839193 65.83922 
L 291.818928 141.601869 
" style="fill:none;stroke:#f0e68c;stroke-linecap:square;stroke-width:3;"/>
   </g>
   <g id="line2d_6">
    <path clip-path="url(#p2acb33f6f0)" d="M 327.362184 282.461538 
L 346.138521 216.271643 
" style="fill:none;stroke:#f0e68c;stroke-linecap:square;stroke-width:3;"/>
   </g>
   <g id="line2d_7">
    <path clip-path="url(#p2acb33f6f0)" d="M 346.138521 216.271643 
L 415.837505 234.507996 
" style="fill:none;stroke:#f0e68c;stroke-linecap:square;stroke-width:3;"/>
   </g>
   <g id="text_1">
    <g id="patch_3">
     <path d="M 311.797475 187.775819 
L 326.159975 187.775819 
L 326.159975 170.097694 
L 311.797475 170.097694 
z
" style="fill:#ffffff;stroke:#ffffff;stroke-linejoin:miter;"/>
    </g>
    <!-- 2 -->
    <g style="fill:#0000ff;" transform="translate(315.797475 181.696131)scale(0.1 -0.1)">
     <defs>
      <path d="M 1228 531 
L 3431 531 
L 3431 0 
L 469 0 
L 469 531 
Q 828 903 1448 1529 
Q 2069 2156 2228 2338 
Q 2531 2678 2651 2914 
Q 2772 3150 2772 3378 
Q 2772 3750 2511 3984 
Q 2250 4219 1831 4219 
Q 1534 4219 1204 4116 
Q 875 4013 500 3803 
L 500 4441 
Q 881 4594 1212 4672 
Q 1544 4750 1819 4750 
Q 2544 4750 2975 4387 
Q 3406 4025 3406 3419 
Q 3406 3131 3298 2873 
Q 3191 2616 2906 2266 
Q 2828 2175 2409 1742 
Q 1991 1309 1228 531 
z
" id="DejaVuSans-32" transform="scale(0.015625)"/>
     </defs>
     <use xlink:href="#DejaVuSans-32"/>
    </g>
   </g>
   <g id="text_2">
    <g id="patch_4">
     <path d="M 252.910558 45.215624 
L 267.273058 45.215624 
L 267.273058 27.537499 
L 252.910558 27.537499 
z
" style="fill:#ffffff;stroke:#ffffff;stroke-linejoin:miter;"/>
    </g>
    <!-- 2 -->
    <g style="fill:#0000ff;" transform="translate(256.910558 39.135936)scale(0.1 -0.1)">
     <use xlink:href="#DejaVuSans-32"/>
    </g>
   </g>
   <g id="text_3">
    <g id="patch_5">
     <path d="M 191.319594 80.017626 
L 205.682094 80.017626 
L 205.682094 62.339501 
L 191.319594 62.339501 
z
" style="fill:#ffffff;stroke:#ffffff;stroke-linejoin:miter;"/>
    </g>
    <!-- 4 -->
    <g style="fill:#0000ff;" transform="translate(195.319594 73.937939)scale(0.1 -0.1)">
     <defs>
      <path d="M 2419 4116 
L 825 1625 
L 2419 1625 
L 2419 4116 
z
M 2253 4666 
L 3047 4666 
L 3047 1625 
L 3713 1625 
L 3713 1100 
L 3047 1100 
L 3047 0 
L 2419 0 
L 2419 1100 
L 313 1100 
L 313 1709 
L 2253 4666 
z
" id="DejaVuSans-34" transform="scale(0.015625)"/>
     </defs>
     <use xlink:href="#DejaVuSans-34"/>
    </g>
   </g>
   <g id="text_4">
    <g id="patch_6">
     <path d="M 213.403113 44.527903 
L 227.765613 44.527903 
L 227.765613 26.849778 
L 213.403113 26.849778 
z
" style="fill:#ffffff;stroke:#ffffff;stroke-linejoin:miter;"/>
    </g>
    <!-- 1 -->
    <g style="fill:#0000ff;" transform="translate(217.403113 38.448216)scale(0.1 -0.1)">
     <defs>
      <path d="M 794 531 
L 1825 531 
L 1825 4091 
L 703 3866 
L 703 4441 
L 1819 4666 
L 2450 4666 
L 2450 531 
L 3481 531 
L 3481 0 
L 794 0 
L 794 531 
z
" id="DejaVuSans-31" transform="scale(0.015625)"/>
     </defs>
     <use xlink:href="#DejaVuSans-31"/>
    </g>
   </g>
   <g id="text_5">
    <g id="patch_7">
     <path d="M 257.147811 112.559607 
L 271.510311 112.559607 
L 271.510311 94.881482 
L 257.147811 94.881482 
z
" style="fill:#ffffff;stroke:#ffffff;stroke-linejoin:miter;"/>
    </g>
    <!-- 1 -->
    <g style="fill:#0000ff;" transform="translate(261.147811 106.479919)scale(0.1 -0.1)">
     <use xlink:href="#DejaVuSans-31"/>
    </g>
   </g>
   <g id="text_6">
    <g id="patch_8">
     <path d="M 329.569102 258.205653 
L 343.931602 258.205653 
L 343.931602 240.527528 
L 329.569102 240.527528 
z
" style="fill:#ffffff;stroke:#ffffff;stroke-linejoin:miter;"/>
    </g>
    <!-- 1 -->
    <g style="fill:#0000ff;" transform="translate(333.569102 252.125966)scale(0.1 -0.1)">
     <use xlink:href="#DejaVuSans-31"/>
    </g>
   </g>
   <g id="text_7">
    <g id="patch_9">
     <path d="M 373.806763 234.228882 
L 388.169263 234.228882 
L 388.169263 216.550757 
L 373.806763 216.550757 
z
" style="fill:#ffffff;stroke:#ffffff;stroke-linejoin:miter;"/>
    </g>
    <!-- 2 -->
    <g style="fill:#0000ff;" transform="translate(377.806763 228.149194)scale(0.1 -0.1)">
     <use xlink:href="#DejaVuSans-32"/>
    </g>
   </g>
   <g id="PathCollection_1">
    <defs>
     <path d="M 0 7.071068 
C 1.875269 7.071068 3.673985 6.326016 5 5 
C 6.326016 3.673985 7.071068 1.875269 7.071068 -0 
C 7.071068 -1.875269 6.326016 -3.673985 5 -5 
C 3.673985 -6.326016 1.875269 -7.071068 0 -7.071068 
C -1.875269 -7.071068 -3.673985 -6.326016 -5 -5 
C -6.326016 -3.673985 -7.071068 -1.875269 -7.071068 0 
C -7.071068 1.875269 -6.326016 3.673985 -5 5 
C -3.673985 6.326016 -1.875269 7.071068 0 7.071068 
z
" id="C0_0_10dcb524d8"/>
    </defs>
    <use style="fill:#87cefa;stroke:#000000;" x="283.344423" xlink:href="#C0_0_10dcb524d8" y="6.913903"/>
    <use style="fill:#87cefa;stroke:#000000;" x="160.162495" xlink:href="#C0_0_10dcb524d8" y="76.517908"/>
    <use style="fill:#87cefa;stroke:#000000;" x="327.362184" xlink:href="#C0_0_10dcb524d8" y="282.461538"/>
    <use style="fill:#87cefa;stroke:#000000;" x="346.138521" xlink:href="#C0_0_10dcb524d8" y="216.271643"/>
    <use style="fill:#87cefa;stroke:#000000;" x="204.329533" xlink:href="#C0_0_10dcb524d8" y="5.538462"/>
    <use style="fill:#87cefa;stroke:#000000;" x="291.818928" xlink:href="#C0_0_10dcb524d8" y="141.601869"/>
    <use style="fill:#87cefa;stroke:#000000;" x="415.837505" xlink:href="#C0_0_10dcb524d8" y="234.507996"/>
    <use style="fill:#f0e68c;stroke:#000000;" x="236.839193" xlink:href="#C0_0_10dcb524d8" y="65.83922"/>
   </g>
  </g>
 </g>
 <defs>
  <clipPath id="p2acb33f6f0">
   <rect height="288" width="265.902011" x="155.048995" y="0"/>
  </clipPath>
 </defs>
</svg>
