<?xml version="1.0" encoding="utf-8" standalone="no"?>
<!DOCTYPE svg PUBLIC "-//W3C//DTD SVG 1.1//EN"
  "http://www.w3.org/Graphics/SVG/1.1/DTD/svg11.dtd">
<svg xmlns:xlink="http://www.w3.org/1999/xlink" width="576pt" height="288pt" viewBox="0 0 576 288" xmlns="http://www.w3.org/2000/svg" version="1.1">
 <metadata>
  <rdf:RDF xmlns:dc="http://purl.org/dc/elements/1.1/" xmlns:cc="http://creativecommons.org/ns#" xmlns:rdf="http://www.w3.org/1999/02/22-rdf-syntax-ns#">
   <cc:Work>
    <dc:type rdf:resource="http://purl.org/dc/dcmitype/StillImage"/>
    <dc:date>2024-09-23T13:31:12.679392</dc:date>
    <dc:format>image/svg+xml</dc:format>
    <dc:creator>
     <cc:Agent>
      <dc:title>Matplotlib v3.9.2, https://matplotlib.org/</dc:title>
     </cc:Agent>
    </dc:creator>
   </cc:Work>
  </rdf:RDF>
 </metadata>
 <defs>
  <style type="text/css">*{stroke-linejoin: round; stroke-linecap: butt}</style>
 </defs>
 <g id="figure_1">
  <g id="patch_1">
   <path d="M 0 288 
L 576 288 
L 576 0 
L 0 0 
z
" style="fill: #ffffff"/>
  </g>
  <g id="axes_1">
   <g id="patch_2">
    <path d="M 0 251.39848 
L 576 251.39848 
L 576 36.60152 
L 0 36.60152 
z
" style="fill: #ffffff"/>
   </g>
   <g id="matplotlib.axis_1"/>
   <g id="matplotlib.axis_2"/>
   <g id="line2d_1">
    <path d="M 467.523613 121.516744 
L 304.13831 133.088334 
" clip-path="url(#pf2f508937a)" style="fill: none; stroke: #87cefa; stroke-width: 3; stroke-linecap: square"/>
   </g>
   <g id="line2d_2">
    <path d="M 83.69942 40.732231 
L 134.95468 140.865269 
" clip-path="url(#pf2f508937a)" style="fill: none; stroke: #f0e68c; stroke-width: 3; stroke-linecap: square"/>
   </g>
   <g id="line2d_3">
    <path d="M 11.076923 146.667186 
L 134.95468 140.865269 
" clip-path="url(#pf2f508937a)" style="fill: none; stroke: #f0e68c; stroke-width: 3; stroke-linecap: square"/>
   </g>
   <g id="line2d_4">
    <path d="M 134.95468 140.865269 
L 89.924568 247.267769 
" clip-path="url(#pf2f508937a)" style="fill: none; stroke: #f0e68c; stroke-width: 3; stroke-linecap: square"/>
   </g>
   <g id="line2d_5">
    <path d="M 134.95468 140.865269 
L 304.13831 133.088334 
" clip-path="url(#pf2f508937a)" style="fill: none; stroke: #f0e68c; stroke-width: 3; stroke-linecap: square"/>
   </g>
   <g id="line2d_6">
    <path d="M 564.923077 188.346426 
L 467.523613 121.516744 
" clip-path="url(#pf2f508937a)" style="fill: none; stroke: #f0e68c; stroke-width: 3; stroke-linecap: square"/>
   </g>
   <g id="line2d_7">
    <path d="M 467.523613 121.516744 
L 557.17037 50.494571 
" clip-path="url(#pf2f508937a)" style="fill: none; stroke: #f0e68c; stroke-width: 3; stroke-linecap: square"/>
   </g>
   <g id="text_1">
    <g id="patch_3">
     <path d="M 378.649712 136.141602 
L 393.012212 136.141602 
L 393.012212 118.463477 
L 378.649712 118.463477 
z
" style="fill: #ffffff; stroke: #ffffff; stroke-linejoin: miter"/>
    </g>
    <!-- 2 -->
    <g style="fill: #0000ff" transform="translate(382.649712 130.061914) scale(0.1 -0.1)">
     <defs>
      <path id="DejaVuSans-32" d="M 1228 531 
L 3431 531 
L 3431 0 
L 469 0 
L 469 531 
Q 828 903 1448 1529 
Q 2069 2156 2228 2338 
Q 2531 2678 2651 2914 
Q 2772 3150 2772 3378 
Q 2772 3750 2511 3984 
Q 2250 4219 1831 4219 
Q 1534 4219 1204 4116 
Q 875 4013 500 3803 
L 500 4441 
Q 881 4594 1212 4672 
Q 1544 4750 1819 4750 
Q 2544 4750 2975 4387 
Q 3406 4025 3406 3419 
Q 3406 3131 3298 2873 
Q 3191 2616 2906 2266 
Q 2828 2175 2409 1742 
Q 1991 1309 1228 531 
z
" transform="scale(0.015625)"/>
     </defs>
     <use xlink:href="#DejaVuSans-32"/>
    </g>
   </g>
   <g id="text_2">
    <g id="patch_4">
     <path d="M 102.1458 99.637812 
L 116.5083 99.637812 
L 116.5083 81.959687 
L 102.1458 81.959687 
z
" style="fill: #ffffff; stroke: #ffffff; stroke-linejoin: miter"/>
    </g>
    <!-- 2 -->
    <g style="fill: #0000ff" transform="translate(106.1458 93.558125) scale(0.1 -0.1)">
     <use xlink:href="#DejaVuSans-32"/>
    </g>
   </g>
   <g id="text_3">
    <g id="patch_5">
     <path d="M 65.834552 152.60529 
L 80.197052 152.60529 
L 80.197052 134.927165 
L 65.834552 134.927165 
z
" style="fill: #ffffff; stroke: #ffffff; stroke-linejoin: miter"/>
    </g>
    <!-- 4 -->
    <g style="fill: #0000ff" transform="translate(69.834552 146.525602) scale(0.1 -0.1)">
     <defs>
      <path id="DejaVuSans-34" d="M 2419 4116 
L 825 1625 
L 2419 1625 
L 2419 4116 
z
M 2253 4666 
L 3047 4666 
L 3047 1625 
L 3713 1625 
L 3713 1100 
L 3047 1100 
L 3047 0 
L 2419 0 
L 2419 1100 
L 313 1100 
L 313 1709 
L 2253 4666 
z
" transform="scale(0.015625)"/>
     </defs>
     <use xlink:href="#DejaVuSans-34"/>
    </g>
   </g>
   <g id="text_4">
    <g id="patch_6">
     <path d="M 105.258374 202.905581 
L 119.620874 202.905581 
L 119.620874 185.227456 
L 105.258374 185.227456 
z
" style="fill: #ffffff; stroke: #ffffff; stroke-linejoin: miter"/>
    </g>
    <!-- 1 -->
    <g style="fill: #0000ff" transform="translate(109.258374 196.825894) scale(0.1 -0.1)">
     <defs>
      <path id="DejaVuSans-31" d="M 794 531 
L 1825 531 
L 1825 4091 
L 703 3866 
L 703 4441 
L 1819 4666 
L 2450 4666 
L 2450 531 
L 3481 531 
L 3481 0 
L 794 0 
L 794 531 
z
" transform="scale(0.015625)"/>
     </defs>
     <use xlink:href="#DejaVuSans-31"/>
    </g>
   </g>
   <g id="text_5">
    <g id="patch_7">
     <path d="M 212.365245 145.815864 
L 226.727745 145.815864 
L 226.727745 128.137739 
L 212.365245 128.137739 
z
" style="fill: #ffffff; stroke: #ffffff; stroke-linejoin: miter"/>
    </g>
    <!-- 1 -->
    <g style="fill: #0000ff" transform="translate(216.365245 139.736176) scale(0.1 -0.1)">
     <use xlink:href="#DejaVuSans-31"/>
    </g>
   </g>
   <g id="text_6">
    <g id="patch_8">
     <path d="M 509.042095 163.770648 
L 523.404595 163.770648 
L 523.404595 146.092523 
L 509.042095 146.092523 
z
" style="fill: #ffffff; stroke: #ffffff; stroke-linejoin: miter"/>
    </g>
    <!-- 1 -->
    <g style="fill: #0000ff" transform="translate(513.042095 157.69096) scale(0.1 -0.1)">
     <use xlink:href="#DejaVuSans-31"/>
    </g>
   </g>
   <g id="text_7">
    <g id="patch_9">
     <path d="M 505.165742 94.84472 
L 519.528242 94.84472 
L 519.528242 77.166595 
L 505.165742 77.166595 
z
" style="fill: #ffffff; stroke: #ffffff; stroke-linejoin: miter"/>
    </g>
    <!-- 2 -->
    <g style="fill: #0000ff" transform="translate(509.165742 88.765033) scale(0.1 -0.1)">
     <use xlink:href="#DejaVuSans-32"/>
    </g>
   </g>
   <g id="PathCollection_1">
    <defs>
     <path id="C0_0_478450d986" d="M 0 7.071068 
C 1.875269 7.071068 3.673985 6.326016 5 5 
C 6.326016 3.673985 7.071068 1.875269 7.071068 -0 
C 7.071068 -1.875269 6.326016 -3.673985 5 -5 
C 3.673985 -6.326016 1.875269 -7.071068 0 -7.071068 
C -1.875269 -7.071068 -3.673985 -6.326016 -5 -5 
C -6.326016 -3.673985 -7.071068 -1.875269 -7.071068 0 
C -7.071068 1.875269 -6.326016 3.673985 -5 5 
C -3.673985 6.326016 -1.875269 7.071068 0 7.071068 
z
"/>
    </defs>
    <use xlink:href="#C0_0_478450d986" x="83.69942" y="40.732231" style="fill: #87cefa; stroke: #000000"/>
    <use xlink:href="#C0_0_478450d986" x="11.076923" y="146.667186" style="fill: #87cefa; stroke: #000000"/>
    <use xlink:href="#C0_0_478450d986" x="564.923077" y="188.346426" style="fill: #87cefa; stroke: #000000"/>
    <use xlink:href="#C0_0_478450d986" x="467.523613" y="121.516744" style="fill: #87cefa; stroke: #000000"/>
    <use xlink:href="#C0_0_478450d986" x="89.924568" y="247.267769" style="fill: #87cefa; stroke: #000000"/>
    <use xlink:href="#C0_0_478450d986" x="304.13831" y="133.088334" style="fill: #87cefa; stroke: #000000"/>
    <use xlink:href="#C0_0_478450d986" x="557.17037" y="50.494571" style="fill: #87cefa; stroke: #000000"/>
    <use xlink:href="#C0_0_478450d986" x="134.95468" y="140.865269" style="fill: #f0e68c; stroke: #000000"/>
   </g>
  </g>
 </g>
 <defs>
  <clipPath id="pf2f508937a">
   <rect x="0" y="36.60152" width="576" height="214.796959"/>
  </clipPath>
 </defs>
</svg>
