<?xml version="1.0" encoding="utf-8" standalone="no"?>
<!DOCTYPE svg PUBLIC "-//W3C//DTD SVG 1.1//EN"
  "http://www.w3.org/Graphics/SVG/1.1/DTD/svg11.dtd">
<svg xmlns:xlink="http://www.w3.org/1999/xlink" width="576pt" height="288pt" viewBox="0 0 576 288" xmlns="http://www.w3.org/2000/svg" version="1.1">
 <metadata>
  <rdf:RDF xmlns:dc="http://purl.org/dc/elements/1.1/" xmlns:cc="http://creativecommons.org/ns#" xmlns:rdf="http://www.w3.org/1999/02/22-rdf-syntax-ns#">
   <cc:Work>
    <dc:type rdf:resource="http://purl.org/dc/dcmitype/StillImage"/>
    <dc:date>2024-01-30T14:53:17.255362</dc:date>
    <dc:format>image/svg+xml</dc:format>
    <dc:creator>
     <cc:Agent>
      <dc:title>Matplotlib v3.8.2, https://matplotlib.org/</dc:title>
     </cc:Agent>
    </dc:creator>
   </cc:Work>
  </rdf:RDF>
 </metadata>
 <defs>
  <style type="text/css">*{stroke-linejoin: round; stroke-linecap: butt}</style>
 </defs>
 <g id="figure_1">
  <g id="patch_1">
   <path d="M 0 288 
L 576 288 
L 576 0 
L 0 0 
z
" style="fill: #ffffff"/>
  </g>
  <g id="axes_1">
   <g id="patch_2">
    <path d="M 187.496658 288 
L 388.503342 288 
L 388.503342 0 
L 187.496658 0 
z
" style="fill: #ffffff"/>
   </g>
   <g id="matplotlib.axis_1"/>
   <g id="matplotlib.axis_2"/>
   <g id="line2d_1">
    <path d="M 324.630315 71.33801 
L 289.190704 145.428509 
" clip-path="url(#p8676cde804)" style="fill: none; stroke: #87cefa; stroke-width: 3; stroke-linecap: square"/>
   </g>
   <g id="line2d_2">
    <path d="M 304.709784 271.203078 
L 258.910884 223.567748 
" clip-path="url(#p8676cde804)" style="fill: none; stroke: #f0e68c; stroke-width: 3; stroke-linecap: square"/>
   </g>
   <g id="line2d_3">
    <path d="M 230.809876 282.461538 
L 258.910884 223.567748 
" clip-path="url(#p8676cde804)" style="fill: none; stroke: #f0e68c; stroke-width: 3; stroke-linecap: square"/>
   </g>
   <g id="line2d_4">
    <path d="M 258.910884 223.567748 
L 191.362171 219.632503 
" clip-path="url(#p8676cde804)" style="fill: none; stroke: #f0e68c; stroke-width: 3; stroke-linecap: square"/>
   </g>
   <g id="line2d_5">
    <path d="M 258.910884 223.567748 
L 289.190704 145.428509 
" clip-path="url(#p8676cde804)" style="fill: none; stroke: #f0e68c; stroke-width: 3; stroke-linecap: square"/>
   </g>
   <g id="line2d_6">
    <path d="M 314.821824 5.538462 
L 324.630315 71.33801 
" clip-path="url(#p8676cde804)" style="fill: none; stroke: #f0e68c; stroke-width: 3; stroke-linecap: square"/>
   </g>
   <g id="line2d_7">
    <path d="M 324.630315 71.33801 
L 384.637829 45.505138 
" clip-path="url(#p8676cde804)" style="fill: none; stroke: #f0e68c; stroke-width: 3; stroke-linecap: square"/>
   </g>
   <g id="text_1">
    <g id="patch_3">
     <path d="M 299.729259 117.222322 
L 314.091759 117.222322 
L 314.091759 99.544197 
L 299.729259 99.544197 
z
" style="fill: #ffffff; stroke: #ffffff; stroke-linejoin: miter"/>
    </g>
    <!-- 2 -->
    <g style="fill: #0000ff" transform="translate(303.729259 111.142635) scale(0.1 -0.1)">
     <defs>
      <path id="DejaVuSans-32" d="M 1228 531 
L 3431 531 
L 3431 0 
L 469 0 
L 469 531 
Q 828 903 1448 1529 
Q 2069 2156 2228 2338 
Q 2531 2678 2651 2914 
Q 2772 3150 2772 3378 
Q 2772 3750 2511 3984 
Q 2250 4219 1831 4219 
Q 1534 4219 1204 4116 
Q 875 4013 500 3803 
L 500 4441 
Q 881 4594 1212 4672 
Q 1544 4750 1819 4750 
Q 2544 4750 2975 4387 
Q 3406 4025 3406 3419 
Q 3406 3131 3298 2873 
Q 3191 2616 2906 2266 
Q 2828 2175 2409 1742 
Q 1991 1309 1228 531 
z
" transform="scale(0.015625)"/>
     </defs>
     <use xlink:href="#DejaVuSans-32"/>
    </g>
   </g>
   <g id="text_2">
    <g id="patch_4">
     <path d="M 274.629084 256.224475 
L 288.991584 256.224475 
L 288.991584 238.54635 
L 274.629084 238.54635 
z
" style="fill: #ffffff; stroke: #ffffff; stroke-linejoin: miter"/>
    </g>
    <!-- 2 -->
    <g style="fill: #0000ff" transform="translate(278.629084 250.144788) scale(0.1 -0.1)">
     <use xlink:href="#DejaVuSans-32"/>
    </g>
   </g>
   <g id="text_3">
    <g id="patch_5">
     <path d="M 237.67913 261.853706 
L 252.04163 261.853706 
L 252.04163 244.175581 
L 237.67913 244.175581 
z
" style="fill: #ffffff; stroke: #ffffff; stroke-linejoin: miter"/>
    </g>
    <!-- 4 -->
    <g style="fill: #0000ff" transform="translate(241.67913 255.774018) scale(0.1 -0.1)">
     <defs>
      <path id="DejaVuSans-34" d="M 2419 4116 
L 825 1625 
L 2419 1625 
L 2419 4116 
z
M 2253 4666 
L 3047 4666 
L 3047 1625 
L 3713 1625 
L 3713 1100 
L 3047 1100 
L 3047 0 
L 2419 0 
L 2419 1100 
L 313 1100 
L 313 1709 
L 2253 4666 
z
" transform="scale(0.015625)"/>
     </defs>
     <use xlink:href="#DejaVuSans-34"/>
    </g>
   </g>
   <g id="text_4">
    <g id="patch_6">
     <path d="M 217.955277 230.439188 
L 232.317777 230.439188 
L 232.317777 212.761063 
L 217.955277 212.761063 
z
" style="fill: #ffffff; stroke: #ffffff; stroke-linejoin: miter"/>
    </g>
    <!-- 1 -->
    <g style="fill: #0000ff" transform="translate(221.955277 224.3595) scale(0.1 -0.1)">
     <defs>
      <path id="DejaVuSans-31" d="M 794 531 
L 1825 531 
L 1825 4091 
L 703 3866 
L 703 4441 
L 1819 4666 
L 2450 4666 
L 2450 531 
L 3481 531 
L 3481 0 
L 794 0 
L 794 531 
z
" transform="scale(0.015625)"/>
     </defs>
     <use xlink:href="#DejaVuSans-31"/>
    </g>
   </g>
   <g id="text_5">
    <g id="patch_7">
     <path d="M 266.869544 193.337191 
L 281.232044 193.337191 
L 281.232044 175.659066 
L 266.869544 175.659066 
z
" style="fill: #ffffff; stroke: #ffffff; stroke-linejoin: miter"/>
    </g>
    <!-- 1 -->
    <g style="fill: #0000ff" transform="translate(270.869544 187.257504) scale(0.1 -0.1)">
     <use xlink:href="#DejaVuSans-31"/>
    </g>
   </g>
   <g id="text_6">
    <g id="patch_8">
     <path d="M 312.54482 47.277298 
L 326.90732 47.277298 
L 326.90732 29.599173 
L 312.54482 29.599173 
z
" style="fill: #ffffff; stroke: #ffffff; stroke-linejoin: miter"/>
    </g>
    <!-- 1 -->
    <g style="fill: #0000ff" transform="translate(316.54482 41.197611) scale(0.1 -0.1)">
     <use xlink:href="#DejaVuSans-31"/>
    </g>
   </g>
   <g id="text_7">
    <g id="patch_9">
     <path d="M 347.452822 67.260637 
L 361.815322 67.260637 
L 361.815322 49.582512 
L 347.452822 49.582512 
z
" style="fill: #ffffff; stroke: #ffffff; stroke-linejoin: miter"/>
    </g>
    <!-- 2 -->
    <g style="fill: #0000ff" transform="translate(351.452822 61.180949) scale(0.1 -0.1)">
     <use xlink:href="#DejaVuSans-32"/>
    </g>
   </g>
   <g id="PathCollection_1">
    <defs>
     <path id="C0_0_81bb962b62" d="M 0 7.071068 
C 1.875269 7.071068 3.673985 6.326016 5 5 
C 6.326016 3.673985 7.071068 1.875269 7.071068 -0 
C 7.071068 -1.875269 6.326016 -3.673985 5 -5 
C 3.673985 -6.326016 1.875269 -7.071068 0 -7.071068 
C -1.875269 -7.071068 -3.673985 -6.326016 -5 -5 
C -6.326016 -3.673985 -7.071068 -1.875269 -7.071068 0 
C -7.071068 1.875269 -6.326016 3.673985 -5 5 
C -3.673985 6.326016 -1.875269 7.071068 0 7.071068 
z
"/>
    </defs>
    <use xlink:href="#C0_0_81bb962b62" x="304.709784" y="271.203078" style="fill: #87cefa; stroke: #000000"/>
    <use xlink:href="#C0_0_81bb962b62" x="230.809876" y="282.461538" style="fill: #87cefa; stroke: #000000"/>
    <use xlink:href="#C0_0_81bb962b62" x="314.821824" y="5.538462" style="fill: #87cefa; stroke: #000000"/>
    <use xlink:href="#C0_0_81bb962b62" x="324.630315" y="71.33801" style="fill: #87cefa; stroke: #000000"/>
    <use xlink:href="#C0_0_81bb962b62" x="191.362171" y="219.632503" style="fill: #87cefa; stroke: #000000"/>
    <use xlink:href="#C0_0_81bb962b62" x="289.190704" y="145.428509" style="fill: #87cefa; stroke: #000000"/>
    <use xlink:href="#C0_0_81bb962b62" x="384.637829" y="45.505138" style="fill: #87cefa; stroke: #000000"/>
    <use xlink:href="#C0_0_81bb962b62" x="258.910884" y="223.567748" style="fill: #f0e68c; stroke: #000000"/>
   </g>
  </g>
 </g>
 <defs>
  <clipPath id="p8676cde804">
   <rect x="187.496658" y="0" width="201.006684" height="288"/>
  </clipPath>
 </defs>
</svg>
