<?xml version="1.0" encoding="utf-8" standalone="no"?>
<!DOCTYPE svg PUBLIC "-//W3C//DTD SVG 1.1//EN"
  "http://www.w3.org/Graphics/SVG/1.1/DTD/svg11.dtd">
<!-- Created with matplotlib (http://matplotlib.org/) -->
<svg height="288pt" version="1.1" viewBox="0 0 576 288" width="576pt" xmlns="http://www.w3.org/2000/svg" xmlns:xlink="http://www.w3.org/1999/xlink">
 <defs>
  <style type="text/css">
*{stroke-linecap:butt;stroke-linejoin:round;}
  </style>
 </defs>
 <g id="figure_1">
  <g id="patch_1">
   <path d="M 0 288 
L 576 288 
L 576 0 
L 0 0 
z
" style="fill:#ffffff;"/>
  </g>
  <g id="axes_1">
   <g id="patch_2">
    <path d="M 182.593499 285.48 
L 393.406501 285.48 
L 393.406501 2.52 
L 182.593499 2.52 
z
" style="fill:#ffffff;"/>
   </g>
   <g id="matplotlib.axis_1"/>
   <g id="matplotlib.axis_2"/>
   <g id="line2d_1">
    <path clip-path="url(#p8e3828a1ca)" d="M 244.796726 216.91033 
L 285.708693 144.998201 
" style="fill:none;stroke:#87cefa;stroke-linecap:square;stroke-width:3;"/>
   </g>
   <g id="line2d_2">
    <path clip-path="url(#p8e3828a1ca)" d="M 352.245249 7.961538 
L 323.703633 67.317768 
" style="fill:none;stroke:#f0e68c;stroke-linecap:square;stroke-width:3;"/>
   </g>
   <g id="line2d_3">
    <path clip-path="url(#p8e3828a1ca)" d="M 389.352405 72.352484 
L 323.703633 67.317768 
" style="fill:none;stroke:#f0e68c;stroke-linecap:square;stroke-width:3;"/>
   </g>
   <g id="line2d_4">
    <path clip-path="url(#p8e3828a1ca)" d="M 323.703633 67.317768 
L 279.922078 19.354176 
" style="fill:none;stroke:#f0e68c;stroke-linecap:square;stroke-width:3;"/>
   </g>
   <g id="line2d_5">
    <path clip-path="url(#p8e3828a1ca)" d="M 323.703633 67.317768 
L 285.708693 144.998201 
" style="fill:none;stroke:#f0e68c;stroke-linecap:square;stroke-width:3;"/>
   </g>
   <g id="line2d_6">
    <path clip-path="url(#p8e3828a1ca)" d="M 186.647595 241.978551 
L 244.796726 216.91033 
" style="fill:none;stroke:#f0e68c;stroke-linecap:square;stroke-width:3;"/>
   </g>
   <g id="line2d_7">
    <path clip-path="url(#p8e3828a1ca)" d="M 244.796726 216.91033 
L 257.807966 280.038462 
" style="fill:none;stroke:#f0e68c;stroke-linecap:square;stroke-width:3;"/>
   </g>
   <g id="text_1">
    <g id="patch_3">
     <path d="M 258.07146 189.793328 
L 272.43396 189.793328 
L 272.43396 172.115203 
L 258.07146 172.115203 
z
" style="fill:#ffffff;stroke:#ffffff;stroke-linejoin:miter;"/>
    </g>
    <!-- 2 -->
    <defs>
     <path d="M 19.1875 8.296875 
L 53.609375 8.296875 
L 53.609375 0 
L 7.328125 0 
L 7.328125 8.296875 
Q 12.9375 14.109375 22.625 23.890625 
Q 32.328125 33.6875 34.8125 36.53125 
Q 39.546875 41.84375 41.421875 45.53125 
Q 43.3125 49.21875 43.3125 52.78125 
Q 43.3125 58.59375 39.234375 62.25 
Q 35.15625 65.921875 28.609375 65.921875 
Q 23.96875 65.921875 18.8125 64.3125 
Q 13.671875 62.703125 7.8125 59.421875 
L 7.8125 69.390625 
Q 13.765625 71.78125 18.9375 73 
Q 24.125 74.21875 28.421875 74.21875 
Q 39.75 74.21875 46.484375 68.546875 
Q 53.21875 62.890625 53.21875 53.421875 
Q 53.21875 48.921875 51.53125 44.890625 
Q 49.859375 40.875 45.40625 35.40625 
Q 44.1875 33.984375 37.640625 27.21875 
Q 31.109375 20.453125 19.1875 8.296875 
z
" id="DejaVuSans-32"/>
    </defs>
    <g style="fill:#0000ff;" transform="translate(262.07146 183.713641)scale(0.1 -0.1)">
     <use xlink:href="#DejaVuSans-32"/>
    </g>
   </g>
   <g id="text_2">
    <g id="patch_4">
     <path d="M 330.793191 46.478716 
L 345.155691 46.478716 
L 345.155691 28.800591 
L 330.793191 28.800591 
z
" style="fill:#ffffff;stroke:#ffffff;stroke-linejoin:miter;"/>
    </g>
    <!-- 2 -->
    <g style="fill:#0000ff;" transform="translate(334.793191 40.399028)scale(0.1 -0.1)">
     <use xlink:href="#DejaVuSans-32"/>
    </g>
   </g>
   <g id="text_3">
    <g id="patch_5">
     <path d="M 349.346769 78.674189 
L 363.709269 78.674189 
L 363.709269 60.996064 
L 349.346769 60.996064 
z
" style="fill:#ffffff;stroke:#ffffff;stroke-linejoin:miter;"/>
    </g>
    <!-- 4 -->
    <defs>
     <path d="M 37.796875 64.3125 
L 12.890625 25.390625 
L 37.796875 25.390625 
z
M 35.203125 72.90625 
L 47.609375 72.90625 
L 47.609375 25.390625 
L 58.015625 25.390625 
L 58.015625 17.1875 
L 47.609375 17.1875 
L 47.609375 0 
L 37.796875 0 
L 37.796875 17.1875 
L 4.890625 17.1875 
L 4.890625 26.703125 
z
" id="DejaVuSans-34"/>
    </defs>
    <g style="fill:#0000ff;" transform="translate(353.346769 72.594501)scale(0.1 -0.1)">
     <use xlink:href="#DejaVuSans-34"/>
    </g>
   </g>
   <g id="text_4">
    <g id="patch_6">
     <path d="M 294.631606 52.175035 
L 308.994106 52.175035 
L 308.994106 34.49691 
L 294.631606 34.49691 
z
" style="fill:#ffffff;stroke:#ffffff;stroke-linejoin:miter;"/>
    </g>
    <!-- 1 -->
    <defs>
     <path d="M 12.40625 8.296875 
L 28.515625 8.296875 
L 28.515625 63.921875 
L 10.984375 60.40625 
L 10.984375 69.390625 
L 28.421875 72.90625 
L 38.28125 72.90625 
L 38.28125 8.296875 
L 54.390625 8.296875 
L 54.390625 0 
L 12.40625 0 
z
" id="DejaVuSans-31"/>
    </defs>
    <g style="fill:#0000ff;" transform="translate(298.631606 46.095347)scale(0.1 -0.1)">
     <use xlink:href="#DejaVuSans-31"/>
    </g>
   </g>
   <g id="text_5">
    <g id="patch_7">
     <path d="M 297.524913 114.997047 
L 311.887413 114.997047 
L 311.887413 97.318922 
L 297.524913 97.318922 
z
" style="fill:#ffffff;stroke:#ffffff;stroke-linejoin:miter;"/>
    </g>
    <!-- 1 -->
    <g style="fill:#0000ff;" transform="translate(301.524913 108.91736)scale(0.1 -0.1)">
     <use xlink:href="#DejaVuSans-31"/>
    </g>
   </g>
   <g id="text_6">
    <g id="patch_8">
     <path d="M 208.540911 238.283503 
L 222.903411 238.283503 
L 222.903411 220.605378 
L 208.540911 220.605378 
z
" style="fill:#ffffff;stroke:#ffffff;stroke-linejoin:miter;"/>
    </g>
    <!-- 1 -->
    <g style="fill:#0000ff;" transform="translate(212.540911 232.203816)scale(0.1 -0.1)">
     <use xlink:href="#DejaVuSans-31"/>
    </g>
   </g>
   <g id="text_7">
    <g id="patch_9">
     <path d="M 244.121096 257.313458 
L 258.483596 257.313458 
L 258.483596 239.635333 
L 244.121096 239.635333 
z
" style="fill:#ffffff;stroke:#ffffff;stroke-linejoin:miter;"/>
    </g>
    <!-- 2 -->
    <g style="fill:#0000ff;" transform="translate(248.121096 251.233771)scale(0.1 -0.1)">
     <use xlink:href="#DejaVuSans-32"/>
    </g>
   </g>
   <g id="PathCollection_1">
    <defs>
     <path d="M 0 7.071068 
C 1.875269 7.071068 3.673985 6.326016 5 5 
C 6.326016 3.673985 7.071068 1.875269 7.071068 0 
C 7.071068 -1.875269 6.326016 -3.673985 5 -5 
C 3.673985 -6.326016 1.875269 -7.071068 0 -7.071068 
C -1.875269 -7.071068 -3.673985 -6.326016 -5 -5 
C -6.326016 -3.673985 -7.071068 -1.875269 -7.071068 0 
C -7.071068 1.875269 -6.326016 3.673985 -5 5 
C -3.673985 6.326016 -1.875269 7.071068 0 7.071068 
z
" id="C0_0_29d16b371c"/>
    </defs>
    <use style="fill:#87cefa;stroke:#000000;" x="352.245249" xlink:href="#C0_0_29d16b371c" y="7.961538"/>
    <use style="fill:#87cefa;stroke:#000000;" x="389.352405" xlink:href="#C0_0_29d16b371c" y="72.352484"/>
    <use style="fill:#87cefa;stroke:#000000;" x="186.647595" xlink:href="#C0_0_29d16b371c" y="241.978551"/>
    <use style="fill:#87cefa;stroke:#000000;" x="244.796726" xlink:href="#C0_0_29d16b371c" y="216.91033"/>
    <use style="fill:#87cefa;stroke:#000000;" x="279.922078" xlink:href="#C0_0_29d16b371c" y="19.354176"/>
    <use style="fill:#87cefa;stroke:#000000;" x="285.708693" xlink:href="#C0_0_29d16b371c" y="144.998201"/>
    <use style="fill:#87cefa;stroke:#000000;" x="257.807966" xlink:href="#C0_0_29d16b371c" y="280.038462"/>
    <use style="fill:#f0e68c;stroke:#000000;" x="323.703633" xlink:href="#C0_0_29d16b371c" y="67.317768"/>
   </g>
  </g>
 </g>
 <defs>
  <clipPath id="p8e3828a1ca">
   <rect height="282.96" width="210.813003" x="182.593499" y="2.52"/>
  </clipPath>
 </defs>
</svg>
