<?xml version="1.0" encoding="utf-8" standalone="no"?>
<!DOCTYPE svg PUBLIC "-//W3C//DTD SVG 1.1//EN"
  "http://www.w3.org/Graphics/SVG/1.1/DTD/svg11.dtd">
<svg height="288pt" version="1.1" viewBox="0 0 576 288" width="576pt" xmlns="http://www.w3.org/2000/svg" xmlns:xlink="http://www.w3.org/1999/xlink">
 <metadata>
  <rdf:RDF xmlns:cc="http://creativecommons.org/ns#" xmlns:dc="http://purl.org/dc/elements/1.1/" xmlns:rdf="http://www.w3.org/1999/02/22-rdf-syntax-ns#">
   <cc:Work>
    <dc:type rdf:resource="http://purl.org/dc/dcmitype/StillImage"/>
    <dc:date>2021-09-20T13:31:17.036135</dc:date>
    <dc:format>image/svg+xml</dc:format>
    <dc:creator>
     <cc:Agent>
      <dc:title>Matplotlib v3.4.3, https://matplotlib.org/</dc:title>
     </cc:Agent>
    </dc:creator>
   </cc:Work>
  </rdf:RDF>
 </metadata>
 <defs>
  <style type="text/css">*{stroke-linecap:butt;stroke-linejoin:round;}</style>
 </defs>
 <g id="figure_1">
  <g id="patch_1">
   <path d="M 0 288 
L 576 288 
L 576 0 
L 0 0 
z
" style="fill:#ffffff;"/>
  </g>
  <g id="axes_1">
   <g id="patch_2">
    <path d="M 111.618606 288 
L 464.381394 288 
L 464.381394 0 
L 111.618606 0 
z
" style="fill:#ffffff;"/>
   </g>
   <g id="matplotlib.axis_1"/>
   <g id="matplotlib.axis_2"/>
   <g id="line2d_1">
    <path clip-path="url(#p7570c898b9)" d="M 374.801006 81.95512 
L 282.685476 139.942158 
" style="fill:none;stroke:#87cefa;stroke-linecap:square;stroke-width:3;"/>
   </g>
   <g id="line2d_2">
    <path clip-path="url(#p7570c898b9)" d="M 198.017882 282.461538 
L 188.957605 200.008502 
" style="fill:none;stroke:#f0e68c;stroke-linecap:square;stroke-width:3;"/>
   </g>
   <g id="line2d_3">
    <path clip-path="url(#p7570c898b9)" d="M 118.402506 246.264764 
L 188.957605 200.008502 
" style="fill:none;stroke:#f0e68c;stroke-linecap:square;stroke-width:3;"/>
   </g>
   <g id="line2d_4">
    <path clip-path="url(#p7570c898b9)" d="M 188.957605 200.008502 
L 123.134806 158.315593 
" style="fill:none;stroke:#f0e68c;stroke-linecap:square;stroke-width:3;"/>
   </g>
   <g id="line2d_5">
    <path clip-path="url(#p7570c898b9)" d="M 188.957605 200.008502 
L 282.685476 139.942158 
" style="fill:none;stroke:#f0e68c;stroke-linecap:square;stroke-width:3;"/>
   </g>
   <g id="line2d_6">
    <path clip-path="url(#p7570c898b9)" d="M 410.728496 5.538462 
L 374.801006 81.95512 
" style="fill:none;stroke:#f0e68c;stroke-linecap:square;stroke-width:3;"/>
   </g>
   <g id="line2d_7">
    <path clip-path="url(#p7570c898b9)" d="M 374.801006 81.95512 
L 457.597494 92.749845 
" style="fill:none;stroke:#f0e68c;stroke-linecap:square;stroke-width:3;"/>
   </g>
   <g id="text_1">
    <g id="patch_3">
     <path d="M 321.561991 119.787702 
L 335.924491 119.787702 
L 335.924491 102.109577 
L 321.561991 102.109577 
z
" style="fill:#ffffff;stroke:#ffffff;stroke-linejoin:miter;"/>
    </g>
    <!-- 2 -->
    <g style="fill:#0000ff;" transform="translate(325.561991 113.708014)scale(0.1 -0.1)">
     <defs>
      <path d="M 1228 531 
L 3431 531 
L 3431 0 
L 469 0 
L 469 531 
Q 828 903 1448 1529 
Q 2069 2156 2228 2338 
Q 2531 2678 2651 2914 
Q 2772 3150 2772 3378 
Q 2772 3750 2511 3984 
Q 2250 4219 1831 4219 
Q 1534 4219 1204 4116 
Q 875 4013 500 3803 
L 500 4441 
Q 881 4594 1212 4672 
Q 1544 4750 1819 4750 
Q 2544 4750 2975 4387 
Q 3406 4025 3406 3419 
Q 3406 3131 3298 2873 
Q 3191 2616 2906 2266 
Q 2828 2175 2409 1742 
Q 1991 1309 1228 531 
z
" id="DejaVuSans-32" transform="scale(0.015625)"/>
     </defs>
     <use xlink:href="#DejaVuSans-32"/>
    </g>
   </g>
   <g id="text_2">
    <g id="patch_4">
     <path d="M 186.306494 250.074083 
L 200.668994 250.074083 
L 200.668994 232.395958 
L 186.306494 232.395958 
z
" style="fill:#ffffff;stroke:#ffffff;stroke-linejoin:miter;"/>
    </g>
    <!-- 2 -->
    <g style="fill:#0000ff;" transform="translate(190.306494 243.994395)scale(0.1 -0.1)">
     <use xlink:href="#DejaVuSans-32"/>
    </g>
   </g>
   <g id="text_3">
    <g id="patch_5">
     <path d="M 146.498805 231.975695 
L 160.861305 231.975695 
L 160.861305 214.29757 
L 146.498805 214.29757 
z
" style="fill:#ffffff;stroke:#ffffff;stroke-linejoin:miter;"/>
    </g>
    <!-- 4 -->
    <g style="fill:#0000ff;" transform="translate(150.498805 225.896008)scale(0.1 -0.1)">
     <defs>
      <path d="M 2419 4116 
L 825 1625 
L 2419 1625 
L 2419 4116 
z
M 2253 4666 
L 3047 4666 
L 3047 1625 
L 3713 1625 
L 3713 1100 
L 3047 1100 
L 3047 0 
L 2419 0 
L 2419 1100 
L 313 1100 
L 313 1709 
L 2253 4666 
z
" id="DejaVuSans-34" transform="scale(0.015625)"/>
     </defs>
     <use xlink:href="#DejaVuSans-34"/>
    </g>
   </g>
   <g id="text_4">
    <g id="patch_6">
     <path d="M 148.864956 188.00111 
L 163.227456 188.00111 
L 163.227456 170.322985 
L 148.864956 170.322985 
z
" style="fill:#ffffff;stroke:#ffffff;stroke-linejoin:miter;"/>
    </g>
    <!-- 1 -->
    <g style="fill:#0000ff;" transform="translate(152.864956 181.921422)scale(0.1 -0.1)">
     <defs>
      <path d="M 794 531 
L 1825 531 
L 1825 4091 
L 703 3866 
L 703 4441 
L 1819 4666 
L 2450 4666 
L 2450 531 
L 3481 531 
L 3481 0 
L 794 0 
L 794 531 
z
" id="DejaVuSans-31" transform="scale(0.015625)"/>
     </defs>
     <use xlink:href="#DejaVuSans-31"/>
    </g>
   </g>
   <g id="text_5">
    <g id="patch_7">
     <path d="M 228.64029 178.814392 
L 243.00279 178.814392 
L 243.00279 161.136267 
L 228.64029 161.136267 
z
" style="fill:#ffffff;stroke:#ffffff;stroke-linejoin:miter;"/>
    </g>
    <!-- 1 -->
    <g style="fill:#0000ff;" transform="translate(232.64029 172.734705)scale(0.1 -0.1)">
     <use xlink:href="#DejaVuSans-31"/>
    </g>
   </g>
   <g id="text_6">
    <g id="patch_8">
     <path d="M 385.583501 52.585853 
L 399.946001 52.585853 
L 399.946001 34.907728 
L 385.583501 34.907728 
z
" style="fill:#ffffff;stroke:#ffffff;stroke-linejoin:miter;"/>
    </g>
    <!-- 1 -->
    <g style="fill:#0000ff;" transform="translate(389.583501 46.506166)scale(0.1 -0.1)">
     <use xlink:href="#DejaVuSans-31"/>
    </g>
   </g>
   <g id="text_7">
    <g id="patch_9">
     <path d="M 409.018 96.191545 
L 423.3805 96.191545 
L 423.3805 78.51342 
L 409.018 78.51342 
z
" style="fill:#ffffff;stroke:#ffffff;stroke-linejoin:miter;"/>
    </g>
    <!-- 2 -->
    <g style="fill:#0000ff;" transform="translate(413.018 90.111857)scale(0.1 -0.1)">
     <use xlink:href="#DejaVuSans-32"/>
    </g>
   </g>
   <g id="PathCollection_1">
    <defs>
     <path d="M 0 7.071068 
C 1.875269 7.071068 3.673985 6.326016 5 5 
C 6.326016 3.673985 7.071068 1.875269 7.071068 -0 
C 7.071068 -1.875269 6.326016 -3.673985 5 -5 
C 3.673985 -6.326016 1.875269 -7.071068 0 -7.071068 
C -1.875269 -7.071068 -3.673985 -6.326016 -5 -5 
C -6.326016 -3.673985 -7.071068 -1.875269 -7.071068 0 
C -7.071068 1.875269 -6.326016 3.673985 -5 5 
C -3.673985 6.326016 -1.875269 7.071068 0 7.071068 
z
" id="C0_0_2037bd06ab"/>
    </defs>
    <use style="fill:#87cefa;stroke:#000000;" x="198.017882" xlink:href="#C0_0_2037bd06ab" y="282.461538"/>
    <use style="fill:#87cefa;stroke:#000000;" x="118.402506" xlink:href="#C0_0_2037bd06ab" y="246.264764"/>
    <use style="fill:#87cefa;stroke:#000000;" x="410.728496" xlink:href="#C0_0_2037bd06ab" y="5.538462"/>
    <use style="fill:#87cefa;stroke:#000000;" x="374.801006" xlink:href="#C0_0_2037bd06ab" y="81.95512"/>
    <use style="fill:#87cefa;stroke:#000000;" x="123.134806" xlink:href="#C0_0_2037bd06ab" y="158.315593"/>
    <use style="fill:#87cefa;stroke:#000000;" x="282.685476" xlink:href="#C0_0_2037bd06ab" y="139.942158"/>
    <use style="fill:#87cefa;stroke:#000000;" x="457.597494" xlink:href="#C0_0_2037bd06ab" y="92.749845"/>
    <use style="fill:#f0e68c;stroke:#000000;" x="188.957605" xlink:href="#C0_0_2037bd06ab" y="200.008502"/>
   </g>
  </g>
 </g>
 <defs>
  <clipPath id="p7570c898b9">
   <rect height="288" width="352.762788" x="111.618606" y="0"/>
  </clipPath>
 </defs>
</svg>
