<?xml version="1.0" encoding="utf-8" standalone="no"?>
<!DOCTYPE svg PUBLIC "-//W3C//DTD SVG 1.1//EN"
  "http://www.w3.org/Graphics/SVG/1.1/DTD/svg11.dtd">
<svg xmlns:xlink="http://www.w3.org/1999/xlink" width="576pt" height="288pt" viewBox="0 0 576 288" xmlns="http://www.w3.org/2000/svg" version="1.1">
 <metadata>
  <rdf:RDF xmlns:dc="http://purl.org/dc/elements/1.1/" xmlns:cc="http://creativecommons.org/ns#" xmlns:rdf="http://www.w3.org/1999/02/22-rdf-syntax-ns#">
   <cc:Work>
    <dc:type rdf:resource="http://purl.org/dc/dcmitype/StillImage"/>
    <dc:date>2024-07-15T13:24:47.336367</dc:date>
    <dc:format>image/svg+xml</dc:format>
    <dc:creator>
     <cc:Agent>
      <dc:title>Matplotlib v3.9.1, https://matplotlib.org/</dc:title>
     </cc:Agent>
    </dc:creator>
   </cc:Work>
  </rdf:RDF>
 </metadata>
 <defs>
  <style type="text/css">*{stroke-linejoin: round; stroke-linecap: butt}</style>
 </defs>
 <g id="figure_1">
  <g id="patch_1">
   <path d="M 0 288 
L 576 288 
L 576 0 
L 0 0 
z
" style="fill: #ffffff"/>
  </g>
  <g id="axes_1">
   <g id="patch_2">
    <path d="M 188.537338 288 
L 387.462662 288 
L 387.462662 0 
L 188.537338 0 
z
" style="fill: #ffffff"/>
   </g>
   <g id="matplotlib.axis_1"/>
   <g id="matplotlib.axis_2"/>
   <g id="line2d_1">
    <path d="M 252.132399 71.105297 
L 286.247454 145.081699 
" clip-path="url(#peb6cda80d0)" style="fill: none; stroke: #87cefa; stroke-width: 3; stroke-linecap: square"/>
   </g>
   <g id="line2d_2">
    <path d="M 383.637175 215.692699 
L 319.547855 222.538877 
" clip-path="url(#peb6cda80d0)" style="fill: none; stroke: #f0e68c; stroke-width: 3; stroke-linecap: square"/>
   </g>
   <g id="line2d_3">
    <path d="M 275.224544 273.531933 
L 319.547855 222.538877 
" clip-path="url(#peb6cda80d0)" style="fill: none; stroke: #f0e68c; stroke-width: 3; stroke-linecap: square"/>
   </g>
   <g id="line2d_4">
    <path d="M 319.547855 222.538877 
L 350.753628 282.461538 
" clip-path="url(#peb6cda80d0)" style="fill: none; stroke: #f0e68c; stroke-width: 3; stroke-linecap: square"/>
   </g>
   <g id="line2d_5">
    <path d="M 319.547855 222.538877 
L 286.247454 145.081699 
" clip-path="url(#peb6cda80d0)" style="fill: none; stroke: #f0e68c; stroke-width: 3; stroke-linecap: square"/>
   </g>
   <g id="line2d_6">
    <path d="M 255.494974 5.538462 
L 252.132399 71.105297 
" clip-path="url(#peb6cda80d0)" style="fill: none; stroke: #f0e68c; stroke-width: 3; stroke-linecap: square"/>
   </g>
   <g id="line2d_7">
    <path d="M 252.132399 71.105297 
L 192.362825 49.168444 
" clip-path="url(#peb6cda80d0)" style="fill: none; stroke: #f0e68c; stroke-width: 3; stroke-linecap: square"/>
   </g>
   <g id="text_1">
    <g id="patch_3">
     <path d="M 262.008677 116.932561 
L 276.371177 116.932561 
L 276.371177 99.254436 
L 262.008677 99.254436 
z
" style="fill: #ffffff; stroke: #ffffff; stroke-linejoin: miter"/>
    </g>
    <!-- 2 -->
    <g style="fill: #0000ff" transform="translate(266.008677 110.852873) scale(0.1 -0.1)">
     <defs>
      <path id="DejaVuSans-32" d="M 1228 531 
L 3431 531 
L 3431 0 
L 469 0 
L 469 531 
Q 828 903 1448 1529 
Q 2069 2156 2228 2338 
Q 2531 2678 2651 2914 
Q 2772 3150 2772 3378 
Q 2772 3750 2511 3984 
Q 2250 4219 1831 4219 
Q 1534 4219 1204 4116 
Q 875 4013 500 3803 
L 500 4441 
Q 881 4594 1212 4672 
Q 1544 4750 1819 4750 
Q 2544 4750 2975 4387 
Q 3406 4025 3406 3419 
Q 3406 3131 3298 2873 
Q 3191 2616 2906 2266 
Q 2828 2175 2409 1742 
Q 1991 1309 1228 531 
z
" transform="scale(0.015625)"/>
     </defs>
     <use xlink:href="#DejaVuSans-32"/>
    </g>
   </g>
   <g id="text_2">
    <g id="patch_4">
     <path d="M 344.411265 227.954851 
L 358.773765 227.954851 
L 358.773765 210.276726 
L 344.411265 210.276726 
z
" style="fill: #ffffff; stroke: #ffffff; stroke-linejoin: miter"/>
    </g>
    <!-- 2 -->
    <g style="fill: #0000ff" transform="translate(348.411265 221.875163) scale(0.1 -0.1)">
     <use xlink:href="#DejaVuSans-32"/>
    </g>
   </g>
   <g id="text_3">
    <g id="patch_5">
     <path d="M 290.20495 256.874468 
L 304.56745 256.874468 
L 304.56745 239.196343 
L 290.20495 239.196343 
z
" style="fill: #ffffff; stroke: #ffffff; stroke-linejoin: miter"/>
    </g>
    <!-- 4 -->
    <g style="fill: #0000ff" transform="translate(294.20495 250.79478) scale(0.1 -0.1)">
     <defs>
      <path id="DejaVuSans-34" d="M 2419 4116 
L 825 1625 
L 2419 1625 
L 2419 4116 
z
M 2253 4666 
L 3047 4666 
L 3047 1625 
L 3713 1625 
L 3713 1100 
L 3047 1100 
L 3047 0 
L 2419 0 
L 2419 1100 
L 313 1100 
L 313 1709 
L 2253 4666 
z
" transform="scale(0.015625)"/>
     </defs>
     <use xlink:href="#DejaVuSans-34"/>
    </g>
   </g>
   <g id="text_4">
    <g id="patch_6">
     <path d="M 327.969491 261.33927 
L 342.331991 261.33927 
L 342.331991 243.661145 
L 327.969491 243.661145 
z
" style="fill: #ffffff; stroke: #ffffff; stroke-linejoin: miter"/>
    </g>
    <!-- 1 -->
    <g style="fill: #0000ff" transform="translate(331.969491 255.259583) scale(0.1 -0.1)">
     <defs>
      <path id="DejaVuSans-31" d="M 794 531 
L 1825 531 
L 1825 4091 
L 703 3866 
L 703 4441 
L 1819 4666 
L 2450 4666 
L 2450 531 
L 3481 531 
L 3481 0 
L 794 0 
L 794 531 
z
" transform="scale(0.015625)"/>
     </defs>
     <use xlink:href="#DejaVuSans-31"/>
    </g>
   </g>
   <g id="text_5">
    <g id="patch_7">
     <path d="M 295.716404 192.64935 
L 310.078904 192.64935 
L 310.078904 174.971225 
L 295.716404 174.971225 
z
" style="fill: #ffffff; stroke: #ffffff; stroke-linejoin: miter"/>
    </g>
    <!-- 1 -->
    <g style="fill: #0000ff" transform="translate(299.716404 186.569663) scale(0.1 -0.1)">
     <use xlink:href="#DejaVuSans-31"/>
    </g>
   </g>
   <g id="text_6">
    <g id="patch_8">
     <path d="M 246.632437 47.160942 
L 260.994937 47.160942 
L 260.994937 29.482817 
L 246.632437 29.482817 
z
" style="fill: #ffffff; stroke: #ffffff; stroke-linejoin: miter"/>
    </g>
    <!-- 1 -->
    <g style="fill: #0000ff" transform="translate(250.632437 41.081254) scale(0.1 -0.1)">
     <use xlink:href="#DejaVuSans-31"/>
    </g>
   </g>
   <g id="text_7">
    <g id="patch_9">
     <path d="M 215.066362 68.975933 
L 229.428862 68.975933 
L 229.428862 51.297808 
L 215.066362 51.297808 
z
" style="fill: #ffffff; stroke: #ffffff; stroke-linejoin: miter"/>
    </g>
    <!-- 2 -->
    <g style="fill: #0000ff" transform="translate(219.066362 62.896246) scale(0.1 -0.1)">
     <use xlink:href="#DejaVuSans-32"/>
    </g>
   </g>
   <g id="PathCollection_1">
    <defs>
     <path id="C0_0_267c5f3153" d="M 0 7.071068 
C 1.875269 7.071068 3.673985 6.326016 5 5 
C 6.326016 3.673985 7.071068 1.875269 7.071068 -0 
C 7.071068 -1.875269 6.326016 -3.673985 5 -5 
C 3.673985 -6.326016 1.875269 -7.071068 0 -7.071068 
C -1.875269 -7.071068 -3.673985 -6.326016 -5 -5 
C -6.326016 -3.673985 -7.071068 -1.875269 -7.071068 0 
C -7.071068 1.875269 -6.326016 3.673985 -5 5 
C -3.673985 6.326016 -1.875269 7.071068 0 7.071068 
z
"/>
    </defs>
    <use xlink:href="#C0_0_267c5f3153" x="383.637175" y="215.692699" style="fill: #87cefa; stroke: #000000"/>
    <use xlink:href="#C0_0_267c5f3153" x="275.224544" y="273.531933" style="fill: #87cefa; stroke: #000000"/>
    <use xlink:href="#C0_0_267c5f3153" x="255.494974" y="5.538462" style="fill: #87cefa; stroke: #000000"/>
    <use xlink:href="#C0_0_267c5f3153" x="252.132399" y="71.105297" style="fill: #87cefa; stroke: #000000"/>
    <use xlink:href="#C0_0_267c5f3153" x="350.753628" y="282.461538" style="fill: #87cefa; stroke: #000000"/>
    <use xlink:href="#C0_0_267c5f3153" x="286.247454" y="145.081699" style="fill: #87cefa; stroke: #000000"/>
    <use xlink:href="#C0_0_267c5f3153" x="192.362825" y="49.168444" style="fill: #87cefa; stroke: #000000"/>
    <use xlink:href="#C0_0_267c5f3153" x="319.547855" y="222.538877" style="fill: #f0e68c; stroke: #000000"/>
   </g>
  </g>
 </g>
 <defs>
  <clipPath id="peb6cda80d0">
   <rect x="188.537338" y="0" width="198.925324" height="288"/>
  </clipPath>
 </defs>
</svg>
